<svg width="257" height="57" viewBox="0 0 257 57" fill="none" xmlns="http://www.w3.org/2000/svg">
<path d="M90.48 36V11.44H82.84V6.80002H103.16V11.44H95.52V36H90.48ZM112.504 36V6.80002H130.024V11.16H117.424V18.76H128.624V23.08H117.424V31.64H130.024V36H112.504ZM149.129 36.4C147.262 36.4 145.622 36.0533 144.209 35.36C142.822 34.64 141.742 33.64 140.969 32.36C140.222 31.0533 139.849 29.52 139.849 27.76V15.04C139.849 13.2533 140.222 11.72 140.969 10.44C141.742 9.16003 142.822 8.17332 144.209 7.48002C145.622 6.76002 147.262 6.40002 149.129 6.40002C151.022 6.40002 152.649 6.76002 154.009 7.48002C155.395 8.17332 156.475 9.16003 157.249 10.44C158.022 11.72 158.409 13.2533 158.409 15.04H153.369C153.369 13.6533 152.995 12.6 152.249 11.88C151.529 11.16 150.489 10.8 149.129 10.8C147.769 10.8 146.715 11.16 145.969 11.88C145.222 12.6 144.849 13.64 144.849 15V27.76C144.849 29.12 145.222 30.1733 145.969 30.92C146.715 31.64 147.769 32 149.129 32C150.489 32 151.529 31.64 152.249 30.92C152.995 30.1733 153.369 29.12 153.369 27.76H158.409C158.409 29.4933 158.022 31.0133 157.249 32.32C156.475 33.6267 155.395 34.64 154.009 35.36C152.649 36.0533 151.022 36.4 149.129 36.4ZM177.033 36.4C175.033 36.4 173.3 36.0667 171.833 35.4C170.366 34.7333 169.233 33.7867 168.433 32.56C167.66 31.3067 167.26 29.84 167.233 28.16H172.233C172.233 29.36 172.66 30.3067 173.513 31C174.393 31.6667 175.58 32 177.073 32C178.513 32 179.633 31.6667 180.433 31C181.26 30.3333 181.673 29.4133 181.673 28.24C181.673 27.2533 181.38 26.4 180.793 25.68C180.233 24.9333 179.42 24.4267 178.353 24.16L174.993 23.24C172.7 22.6533 170.926 21.6 169.673 20.08C168.446 18.56 167.833 16.72 167.833 14.56C167.833 12.9067 168.206 11.4667 168.953 10.24C169.7 9.01332 170.753 8.06672 172.113 7.40002C173.5 6.73332 175.126 6.40002 176.993 6.40002C179.82 6.40002 182.06 7.13333 183.713 8.60003C185.366 10.04 186.206 11.9867 186.233 14.44H181.233C181.233 13.2933 180.86 12.4 180.113 11.76C179.366 11.0933 178.313 10.76 176.953 10.76C175.646 10.76 174.633 11.0667 173.913 11.68C173.193 12.2933 172.833 13.16 172.833 14.28C172.833 15.2933 173.1 16.16 173.633 16.88C174.193 17.5733 174.993 18.0667 176.033 18.36L179.513 19.32C181.833 19.9067 183.606 20.96 184.833 22.48C186.06 23.9733 186.673 25.8267 186.673 28.04C186.673 29.6933 186.273 31.16 185.473 32.44C184.673 33.6933 183.553 34.6667 182.113 35.36C180.673 36.0533 178.98 36.4 177.033 36.4ZM194.338 36L201.698 6.80002H208.138L215.537 36H210.418L208.818 28.92H201.058L199.458 36H194.338ZM201.978 24.84H207.898L206.138 17C205.844 15.6933 205.591 14.52 205.378 13.48C205.164 12.4133 205.018 11.64 204.938 11.16C204.858 11.64 204.711 12.4133 204.498 13.48C204.311 14.52 204.058 15.68 203.738 16.96L201.978 24.84ZM223.922 36V6.80002H232.602C234.575 6.80002 236.282 7.17332 237.722 7.92002C239.189 8.66672 240.322 9.72002 241.122 11.08C241.922 12.44 242.322 14.0533 242.322 15.92V26.84C242.322 28.68 241.922 30.2933 241.122 31.68C240.322 33.04 239.189 34.1067 237.722 34.88C236.282 35.6267 234.575 36 232.602 36H223.922ZM228.922 31.4H232.602C234.042 31.4 235.189 31 236.042 30.2C236.895 29.3733 237.322 28.2533 237.322 26.84V15.92C237.322 14.5333 236.895 13.44 236.042 12.64C235.189 11.8133 234.042 11.4 232.602 11.4H228.922V31.4Z" fill="white"/>
<path d="M89.462 52C88.594 52 87.96 51.8 87.56 51.4C87.16 51 86.96 50.366 86.96 49.498V46.768C86.96 45.892 87.158 45.256 87.554 44.86C87.954 44.464 88.586 44.266 89.45 44.266H90.902C91.638 44.266 92.186 44.42 92.546 44.728C92.906 45.032 93.104 45.522 93.14 46.198C93.152 46.306 93.13 46.388 93.074 46.444C93.022 46.5 92.944 46.528 92.84 46.528C92.64 46.528 92.53 46.422 92.51 46.21C92.482 45.714 92.346 45.372 92.102 45.184C91.858 44.992 91.458 44.896 90.902 44.896H89.45C88.99 44.896 88.624 44.956 88.352 45.076C88.08 45.192 87.884 45.388 87.764 45.664C87.648 45.936 87.59 46.304 87.59 46.768V49.498C87.59 49.962 87.65 50.33 87.77 50.602C87.89 50.874 88.086 51.07 88.358 51.19C88.63 51.31 88.998 51.37 89.462 51.37H90.902C91.31 51.37 91.632 51.32 91.868 51.22C92.108 51.12 92.278 50.952 92.378 50.716C92.478 50.48 92.528 50.154 92.528 49.738V48.988L91.214 48.976C91.006 48.976 90.902 48.87 90.902 48.658C90.902 48.45 91.006 48.346 91.214 48.346L92.846 48.358C93.054 48.358 93.158 48.462 93.158 48.67V49.738C93.158 50.53 92.98 51.106 92.624 51.466C92.268 51.822 91.694 52 90.902 52H89.462ZM95.1017 49.408V49.846C95.1017 50.41 95.2137 50.806 95.4377 51.034C95.6657 51.258 96.0657 51.37 96.6377 51.37H97.6217C98.1257 51.37 98.4917 51.306 98.7197 51.178C98.9517 51.046 99.09 50.82 99.134 50.5C99.15 50.4 99.182 50.324 99.23 50.272C99.282 50.22 99.36 50.194 99.464 50.194C99.568 50.194 99.646 50.224 99.698 50.284C99.754 50.34 99.776 50.42 99.764 50.524C99.712 51.028 99.51 51.4 99.158 51.64C98.8057 51.88 98.2937 52 97.6217 52H96.6377C95.8897 52 95.3417 51.828 94.9937 51.484C94.6457 51.136 94.4717 50.59 94.4717 49.846V48.49C94.4717 47.734 94.6457 47.184 94.9937 46.84C95.3417 46.492 95.8897 46.322 96.6377 46.33H97.6217C98.3697 46.33 98.9157 46.504 99.26 46.852C99.608 47.196 99.782 47.742 99.782 48.49V49.09C99.782 49.302 99.678 49.408 99.47 49.408H95.1017ZM96.6377 46.96C96.0657 46.952 95.6657 47.062 95.4377 47.29C95.2137 47.514 95.1017 47.914 95.1017 48.49V48.778H99.152V48.49C99.152 47.918 99.04 47.52 98.8157 47.296C98.5917 47.072 98.1937 46.96 97.6217 46.96H96.6377ZM103.106 51.988C102.614 51.988 102.238 51.884 101.978 51.676C101.718 51.464 101.562 51.142 101.51 50.71C101.498 50.606 101.52 50.526 101.576 50.47C101.632 50.41 101.714 50.38 101.822 50.38C101.922 50.38 101.996 50.406 102.044 50.458C102.096 50.51 102.13 50.588 102.146 50.692C102.182 50.94 102.272 51.114 102.416 51.214C102.564 51.31 102.794 51.358 103.106 51.358H105.074C105.446 51.358 105.702 51.288 105.842 51.148C105.982 51.008 106.052 50.752 106.052 50.38C106.052 50.004 105.982 49.746 105.842 49.606C105.702 49.466 105.446 49.396 105.074 49.396H103.13C102.61 49.396 102.222 49.272 101.966 49.024C101.714 48.772 101.588 48.386 101.588 47.866C101.588 47.334 101.714 46.944 101.966 46.696C102.218 46.444 102.606 46.318 103.13 46.318H105.014C105.918 46.318 106.42 46.718 106.52 47.518C106.536 47.622 106.514 47.704 106.454 47.764C106.398 47.82 106.318 47.848 106.214 47.848C106.114 47.848 106.038 47.822 105.986 47.77C105.938 47.718 105.904 47.642 105.884 47.542C105.856 47.318 105.774 47.164 105.638 47.08C105.506 46.992 105.298 46.948 105.014 46.948H103.13C102.782 46.948 102.542 47.012 102.41 47.14C102.282 47.268 102.218 47.51 102.218 47.866C102.218 48.206 102.284 48.442 102.416 48.574C102.548 48.702 102.786 48.766 103.13 48.766H105.074C105.626 48.766 106.032 48.898 106.292 49.162C106.552 49.422 106.682 49.828 106.682 50.38C106.682 50.928 106.552 51.334 106.292 51.598C106.032 51.858 105.626 51.988 105.074 51.988H103.106ZM110.883 52C110.147 52 109.609 51.83 109.269 51.49C108.929 51.15 108.759 50.614 108.759 49.882V46.96H108.045C107.833 46.96 107.727 46.854 107.727 46.642C107.727 46.434 107.833 46.33 108.045 46.33H108.759V45.04C108.759 44.828 108.863 44.722 109.071 44.722C109.283 44.722 109.389 44.828 109.389 45.04V46.33H110.895C111.103 46.33 111.207 46.434 111.207 46.642C111.207 46.854 111.103 46.96 110.895 46.96H109.389V49.882C109.389 50.442 109.497 50.83 109.713 51.046C109.933 51.262 110.323 51.37 110.883 51.37C110.999 51.37 111.081 51.396 111.129 51.448C111.181 51.5 111.207 51.578 111.207 51.682C111.207 51.894 111.099 52 110.883 52ZM114.191 52C113.567 52 113.109 51.856 112.817 51.568C112.529 51.276 112.385 50.818 112.385 50.194C112.385 49.57 112.531 49.112 112.823 48.82C113.115 48.528 113.571 48.382 114.191 48.382H116.921C116.913 47.854 116.793 47.486 116.561 47.278C116.333 47.066 115.943 46.96 115.391 46.96H114.695C114.187 46.96 113.815 47.014 113.579 47.122C113.343 47.23 113.197 47.414 113.141 47.674C113.113 47.774 113.075 47.848 113.027 47.896C112.983 47.94 112.911 47.962 112.811 47.962C112.707 47.962 112.625 47.934 112.565 47.878C112.509 47.818 112.489 47.738 112.505 47.638C112.557 47.182 112.763 46.85 113.123 46.642C113.487 46.434 114.011 46.33 114.695 46.33H115.391C116.139 46.33 116.685 46.504 117.029 46.852C117.377 47.196 117.551 47.742 117.551 48.49V51.682C117.551 51.894 117.447 52 117.239 52C117.027 52 116.921 51.894 116.921 51.682V51.088C116.537 51.696 115.851 52 114.863 52H114.191ZM114.191 51.37H114.863C115.251 51.37 115.591 51.328 115.883 51.244C116.179 51.156 116.417 51.016 116.597 50.824C116.777 50.632 116.885 50.376 116.921 50.056V49.012H114.191C113.747 49.012 113.439 49.098 113.267 49.27C113.099 49.438 113.015 49.746 113.015 50.194C113.015 50.638 113.099 50.946 113.267 51.118C113.439 51.286 113.747 51.37 114.191 51.37ZM115.739 45.364C115.511 45.364 115.327 45.312 115.187 45.208C115.051 45.104 114.939 45.008 114.851 44.92C114.759 44.824 114.677 44.752 114.605 44.704C114.533 44.652 114.437 44.626 114.317 44.626C114.169 44.626 114.057 44.666 113.981 44.746C113.909 44.826 113.845 44.956 113.789 45.136C113.761 45.204 113.721 45.26 113.669 45.304C113.621 45.344 113.555 45.356 113.471 45.34C113.351 45.324 113.275 45.274 113.243 45.19C113.211 45.102 113.209 45.026 113.237 44.962C113.341 44.65 113.481 44.42 113.657 44.272C113.833 44.124 114.053 44.05 114.317 44.05C114.565 44.05 114.763 44.104 114.911 44.212C115.059 44.32 115.177 44.422 115.265 44.518C115.373 44.622 115.457 44.692 115.517 44.728C115.581 44.764 115.655 44.782 115.739 44.782C115.871 44.782 115.975 44.744 116.051 44.668C116.127 44.592 116.193 44.468 116.249 44.296C116.277 44.22 116.313 44.164 116.357 44.128C116.405 44.088 116.477 44.072 116.573 44.08C116.689 44.096 116.763 44.146 116.795 44.23C116.827 44.314 116.831 44.388 116.807 44.452C116.699 44.744 116.559 44.97 116.387 45.13C116.219 45.286 116.003 45.364 115.739 45.364ZM121.692 52C120.944 52 120.396 51.828 120.048 51.484C119.7 51.136 119.526 50.59 119.526 49.846V48.49C119.526 47.734 119.7 47.184 120.048 46.84C120.396 46.492 120.944 46.322 121.692 46.33H122.676C123.424 46.33 123.97 46.504 124.314 46.852C124.662 47.196 124.836 47.742 124.836 48.49V49.834C124.836 50.582 124.662 51.13 124.314 51.478C123.97 51.826 123.424 52 122.676 52H121.692ZM120.156 49.846C120.156 50.41 120.268 50.806 120.492 51.034C120.72 51.258 121.12 51.37 121.692 51.37H122.676C123.248 51.37 123.646 51.258 123.87 51.034C124.094 50.806 124.206 50.406 124.206 49.834V48.49C124.206 47.918 124.094 47.52 123.87 47.296C123.646 47.072 123.248 46.96 122.676 46.96H121.692C121.308 46.956 121.004 47.002 120.78 47.098C120.556 47.194 120.396 47.354 120.3 47.578C120.204 47.802 120.156 48.106 120.156 48.49V49.846ZM132.217 52.006C132.121 52.006 132.043 51.978 131.983 51.922C131.927 51.866 131.899 51.79 131.899 51.694V44.89H129.349C129.253 44.89 129.175 44.862 129.115 44.806C129.059 44.75 129.031 44.674 129.031 44.578C129.031 44.482 129.059 44.406 129.115 44.35C129.175 44.29 129.253 44.26 129.349 44.26H135.085C135.181 44.26 135.257 44.29 135.313 44.35C135.369 44.406 135.397 44.482 135.397 44.578C135.397 44.674 135.369 44.75 135.313 44.806C135.257 44.862 135.181 44.89 135.085 44.89H132.529V51.694C132.529 51.786 132.499 51.862 132.439 51.922C132.383 51.978 132.309 52.006 132.217 52.006ZM135.883 49.408V49.846C135.883 50.41 135.995 50.806 136.219 51.034C136.447 51.258 136.847 51.37 137.419 51.37H138.403C138.907 51.37 139.273 51.306 139.501 51.178C139.733 51.046 139.871 50.82 139.915 50.5C139.931 50.4 139.963 50.324 140.011 50.272C140.063 50.22 140.141 50.194 140.245 50.194C140.349 50.194 140.427 50.224 140.479 50.284C140.535 50.34 140.557 50.42 140.545 50.524C140.493 51.028 140.291 51.4 139.939 51.64C139.587 51.88 139.075 52 138.403 52H137.419C136.671 52 136.123 51.828 135.775 51.484C135.427 51.136 135.253 50.59 135.253 49.846V48.49C135.253 47.734 135.427 47.184 135.775 46.84C136.123 46.492 136.671 46.322 137.419 46.33H138.403C139.151 46.33 139.697 46.504 140.041 46.852C140.389 47.196 140.563 47.742 140.563 48.49V49.09C140.563 49.302 140.459 49.408 140.251 49.408H135.883ZM137.419 46.96C136.847 46.952 136.447 47.062 136.219 47.29C135.995 47.514 135.883 47.914 135.883 48.49V48.778H139.933V48.49C139.933 47.918 139.821 47.52 139.597 47.296C139.373 47.072 138.975 46.96 138.403 46.96H137.419ZM144.649 52C143.901 52 143.353 51.826 143.005 51.478C142.657 51.13 142.483 50.582 142.483 49.834V48.478C142.483 47.73 142.655 47.184 142.999 46.84C143.347 46.492 143.897 46.322 144.649 46.33H145.633C146.221 46.33 146.669 46.43 146.977 46.63C147.289 46.826 147.475 47.136 147.535 47.56C147.547 47.668 147.523 47.75 147.463 47.806C147.407 47.862 147.327 47.89 147.223 47.89C147.127 47.89 147.055 47.866 147.007 47.818C146.959 47.766 146.923 47.692 146.899 47.596C146.855 47.364 146.737 47.2 146.545 47.104C146.353 47.008 146.049 46.96 145.633 46.96H144.649C144.077 46.952 143.677 47.06 143.449 47.284C143.225 47.504 143.113 47.902 143.113 48.478V49.834C143.113 50.406 143.225 50.806 143.449 51.034C143.677 51.258 144.077 51.37 144.649 51.37H145.633C146.049 51.37 146.353 51.322 146.545 51.226C146.737 51.13 146.855 50.964 146.899 50.728C146.923 50.632 146.959 50.56 147.007 50.512C147.055 50.46 147.127 50.434 147.223 50.434C147.327 50.434 147.407 50.464 147.463 50.524C147.523 50.58 147.547 50.66 147.535 50.764C147.475 51.188 147.289 51.5 146.977 51.7C146.669 51.9 146.221 52 145.633 52H144.649ZM149.819 52C149.607 52 149.501 51.894 149.501 51.682V46.642C149.501 46.434 149.607 46.33 149.819 46.33C150.027 46.33 150.131 46.434 150.131 46.642V47.218C150.511 46.626 151.199 46.33 152.195 46.33H152.531C153.279 46.33 153.825 46.504 154.169 46.852C154.517 47.196 154.691 47.742 154.691 48.49V51.682C154.691 51.894 154.587 52 154.379 52C154.167 52 154.061 51.894 154.061 51.682V48.49C154.061 47.918 153.947 47.52 153.719 47.296C153.495 47.072 153.099 46.96 152.531 46.96H152.195C151.575 46.96 151.087 47.058 150.731 47.254C150.375 47.45 150.175 47.756 150.131 48.172V51.682C150.131 51.894 150.027 52 149.819 52ZM158.829 52C158.081 52 157.533 51.828 157.185 51.484C156.837 51.136 156.663 50.59 156.663 49.846V48.49C156.663 47.734 156.837 47.184 157.185 46.84C157.533 46.492 158.081 46.322 158.829 46.33H159.813C160.561 46.33 161.107 46.504 161.451 46.852C161.799 47.196 161.973 47.742 161.973 48.49V49.834C161.973 50.582 161.799 51.13 161.451 51.478C161.107 51.826 160.561 52 159.813 52H158.829ZM157.293 49.846C157.293 50.41 157.405 50.806 157.629 51.034C157.857 51.258 158.257 51.37 158.829 51.37H159.813C160.385 51.37 160.783 51.258 161.007 51.034C161.231 50.806 161.343 50.406 161.343 49.834V48.49C161.343 47.918 161.231 47.52 161.007 47.296C160.783 47.072 160.385 46.96 159.813 46.96H158.829C158.445 46.956 158.141 47.002 157.917 47.098C157.693 47.194 157.533 47.354 157.437 47.578C157.341 47.802 157.293 48.106 157.293 48.49V49.846ZM165.706 52C165.138 52 164.72 51.868 164.452 51.604C164.188 51.34 164.056 50.926 164.056 50.362V43.99C164.056 43.782 164.162 43.678 164.374 43.678C164.582 43.678 164.686 43.782 164.686 43.99V50.362C164.686 50.75 164.758 51.016 164.902 51.16C165.046 51.3 165.312 51.37 165.7 51.37C165.916 51.37 166.024 51.474 166.024 51.682C166.028 51.894 165.922 52 165.706 52ZM169.491 45.586C169.343 45.458 169.329 45.316 169.449 45.16L170.481 43.942C170.609 43.782 170.749 43.77 170.901 43.906C171.049 44.03 171.063 44.17 170.943 44.326L169.911 45.544C169.783 45.704 169.643 45.718 169.491 45.586ZM169.317 52C168.569 52 168.021 51.828 167.673 51.484C167.325 51.136 167.151 50.59 167.151 49.846V48.49C167.151 47.734 167.325 47.184 167.673 46.84C168.021 46.492 168.569 46.322 169.317 46.33H170.301C171.049 46.33 171.595 46.504 171.939 46.852C172.287 47.196 172.461 47.742 172.461 48.49V49.834C172.461 50.582 172.287 51.13 171.939 51.478C171.595 51.826 171.049 52 170.301 52H169.317ZM167.781 49.846C167.781 50.41 167.893 50.806 168.117 51.034C168.345 51.258 168.745 51.37 169.317 51.37H170.301C170.873 51.37 171.271 51.258 171.495 51.034C171.719 50.806 171.831 50.406 171.831 49.834V48.49C171.831 47.918 171.719 47.52 171.495 47.296C171.271 47.072 170.873 46.96 170.301 46.96H169.317C168.933 46.956 168.629 47.002 168.405 47.098C168.181 47.194 168.021 47.354 167.925 47.578C167.829 47.802 167.781 48.106 167.781 48.49V49.846ZM175.924 54.4C175.452 54.4 175.092 54.302 174.844 54.106C174.596 53.914 174.45 53.61 174.406 53.194C174.394 53.09 174.416 53.008 174.472 52.948C174.528 52.888 174.606 52.858 174.706 52.858C174.806 52.858 174.882 52.884 174.934 52.936C174.986 52.988 175.02 53.066 175.036 53.17C175.064 53.402 175.146 53.56 175.282 53.644C175.418 53.728 175.632 53.77 175.924 53.77H178.156C178.508 53.77 178.746 53.706 178.87 53.578C178.998 53.45 179.062 53.21 179.062 52.858V51.142C178.878 51.422 178.618 51.636 178.282 51.784C177.946 51.928 177.52 52 177.004 52H176.548C175.8 52 175.252 51.828 174.904 51.484C174.556 51.136 174.382 50.59 174.382 49.846V48.49C174.382 47.734 174.554 47.186 174.898 46.846C175.246 46.502 175.796 46.33 176.548 46.33H177.532C177.924 46.33 178.242 46.382 178.486 46.486C178.73 46.59 178.922 46.752 179.062 46.972V46.642C179.062 46.434 179.168 46.33 179.38 46.33C179.588 46.33 179.692 46.434 179.692 46.642V52.858C179.692 53.386 179.568 53.774 179.32 54.022C179.072 54.274 178.684 54.4 178.156 54.4H175.924ZM176.548 51.37H177.004C177.628 51.37 178.126 51.272 178.498 51.076C178.874 50.88 179.062 50.582 179.062 50.182V48.178C179.062 47.726 178.936 47.41 178.684 47.23C178.432 47.05 178.048 46.96 177.532 46.96H176.548C175.976 46.96 175.576 47.072 175.348 47.296C175.124 47.516 175.012 47.914 175.012 48.49V49.846C175.012 50.41 175.124 50.806 175.348 51.034C175.576 51.258 175.976 51.37 176.548 51.37ZM182.013 45.238C181.737 45.238 181.599 45.096 181.599 44.812V44.542C181.599 44.266 181.737 44.128 182.013 44.128H182.283C182.551 44.128 182.685 44.266 182.685 44.542V44.812C182.685 45.096 182.551 45.238 182.283 45.238H182.013ZM182.151 52C181.939 52 181.833 51.894 181.833 51.682V46.642C181.833 46.434 181.939 46.33 182.151 46.33C182.359 46.33 182.463 46.434 182.463 46.642V51.682C182.463 51.894 182.359 52 182.151 52ZM186.708 52C185.96 52 185.412 51.826 185.064 51.478C184.716 51.13 184.542 50.582 184.542 49.834V48.478C184.542 47.73 184.714 47.184 185.058 46.84C185.406 46.492 185.956 46.322 186.708 46.33H187.692C188.28 46.33 188.728 46.43 189.036 46.63C189.348 46.826 189.534 47.136 189.594 47.56C189.606 47.668 189.582 47.75 189.522 47.806C189.466 47.862 189.386 47.89 189.282 47.89C189.186 47.89 189.114 47.866 189.066 47.818C189.018 47.766 188.982 47.692 188.958 47.596C188.914 47.364 188.796 47.2 188.604 47.104C188.412 47.008 188.108 46.96 187.692 46.96H186.708C186.136 46.952 185.736 47.06 185.508 47.284C185.284 47.504 185.172 47.902 185.172 48.478V49.834C185.172 50.406 185.284 50.806 185.508 51.034C185.736 51.258 186.136 51.37 186.708 51.37H187.692C188.108 51.37 188.412 51.322 188.604 51.226C188.796 51.13 188.914 50.964 188.958 50.728C188.982 50.632 189.018 50.56 189.066 50.512C189.114 50.46 189.186 50.434 189.282 50.434C189.386 50.434 189.466 50.464 189.522 50.524C189.582 50.58 189.606 50.66 189.594 50.764C189.534 51.188 189.348 51.5 189.036 51.7C188.728 51.9 188.28 52 187.692 52H186.708ZM193.011 52C192.387 52 191.929 51.856 191.637 51.568C191.349 51.276 191.205 50.818 191.205 50.194C191.205 49.57 191.351 49.112 191.643 48.82C191.935 48.528 192.391 48.382 193.011 48.382H195.741C195.733 47.854 195.613 47.486 195.381 47.278C195.153 47.066 194.763 46.96 194.211 46.96H193.515C193.007 46.96 192.635 47.014 192.399 47.122C192.163 47.23 192.017 47.414 191.961 47.674C191.933 47.774 191.895 47.848 191.847 47.896C191.803 47.94 191.731 47.962 191.631 47.962C191.527 47.962 191.445 47.934 191.385 47.878C191.329 47.818 191.309 47.738 191.325 47.638C191.377 47.182 191.583 46.85 191.943 46.642C192.307 46.434 192.831 46.33 193.515 46.33H194.211C194.959 46.33 195.505 46.504 195.849 46.852C196.197 47.196 196.371 47.742 196.371 48.49V51.682C196.371 51.894 196.267 52 196.059 52C195.847 52 195.741 51.894 195.741 51.682V51.088C195.357 51.696 194.671 52 193.683 52H193.011ZM193.011 51.37H193.683C194.071 51.37 194.411 51.328 194.703 51.244C194.999 51.156 195.237 51.016 195.417 50.824C195.597 50.632 195.705 50.376 195.741 50.056V49.012H193.011C192.567 49.012 192.259 49.098 192.087 49.27C191.919 49.438 191.835 49.746 191.835 50.194C191.835 50.638 191.919 50.946 192.087 51.118C192.259 51.286 192.567 51.37 193.011 51.37ZM201.988 49.408V49.846C201.988 50.41 202.1 50.806 202.324 51.034C202.552 51.258 202.952 51.37 203.524 51.37H204.508C205.012 51.37 205.378 51.306 205.606 51.178C205.838 51.046 205.976 50.82 206.02 50.5C206.036 50.4 206.068 50.324 206.116 50.272C206.168 50.22 206.246 50.194 206.35 50.194C206.454 50.194 206.532 50.224 206.584 50.284C206.64 50.34 206.662 50.42 206.65 50.524C206.598 51.028 206.396 51.4 206.044 51.64C205.692 51.88 205.18 52 204.508 52H203.524C202.776 52 202.228 51.828 201.88 51.484C201.532 51.136 201.358 50.59 201.358 49.846V48.49C201.358 47.734 201.532 47.184 201.88 46.84C202.228 46.492 202.776 46.322 203.524 46.33H204.508C205.256 46.33 205.802 46.504 206.146 46.852C206.494 47.196 206.668 47.742 206.668 48.49V49.09C206.668 49.302 206.564 49.408 206.356 49.408H201.988ZM203.524 46.96C202.952 46.952 202.552 47.062 202.324 47.29C202.1 47.514 201.988 47.914 201.988 48.49V48.778H206.038V48.49C206.038 47.918 205.926 47.52 205.702 47.296C205.478 47.072 205.08 46.96 204.508 46.96H203.524ZM215.105 46.318C215.749 46.318 216.209 46.482 216.485 46.81C216.765 47.138 216.905 47.68 216.905 48.436V51.694C216.905 51.902 216.801 52.006 216.593 52.006C216.381 52.006 216.275 51.902 216.275 51.694V48.436C216.275 47.908 216.185 47.528 216.005 47.296C215.825 47.064 215.525 46.948 215.105 46.948H214.607C214.083 46.948 213.707 47.064 213.479 47.296C213.255 47.528 213.143 47.908 213.143 48.436V51.694C213.143 51.902 213.039 52.006 212.831 52.006C212.619 52.006 212.513 51.902 212.513 51.694V48.436C212.513 47.908 212.423 47.528 212.243 47.296C212.063 47.064 211.763 46.948 211.343 46.948H210.845C210.321 46.948 209.945 47.064 209.717 47.296C209.493 47.528 209.381 47.908 209.381 48.436V51.694C209.381 51.902 209.277 52.006 209.069 52.006C208.857 52.006 208.751 51.902 208.751 51.694V46.642C208.751 46.434 208.857 46.33 209.069 46.33C209.277 46.33 209.381 46.434 209.381 46.642V47.11C209.557 46.826 209.765 46.624 210.005 46.504C210.249 46.38 210.557 46.318 210.929 46.318H211.343C211.763 46.318 212.099 46.392 212.351 46.54C212.607 46.684 212.809 46.922 212.957 47.254C213.133 46.922 213.349 46.684 213.605 46.54C213.861 46.392 214.195 46.318 214.607 46.318H215.105ZM224.038 51.988C223.322 51.988 222.79 51.83 222.442 51.514C222.098 51.194 221.914 50.692 221.89 50.008C221.886 49.912 221.912 49.836 221.968 49.78C222.028 49.72 222.106 49.69 222.202 49.69C222.298 49.69 222.374 49.718 222.43 49.774C222.486 49.83 222.518 49.906 222.526 50.002C222.542 50.506 222.662 50.858 222.886 51.058C223.11 51.258 223.494 51.358 224.038 51.358H225.766C226.334 51.358 226.728 51.248 226.948 51.028C227.172 50.804 227.284 50.412 227.284 49.852C227.284 49.284 227.172 48.89 226.948 48.67C226.728 48.446 226.334 48.334 225.766 48.334H224.122C223.418 48.334 222.902 48.17 222.574 47.842C222.246 47.514 222.082 47 222.082 46.3C222.082 45.6 222.244 45.086 222.568 44.758C222.896 44.43 223.41 44.266 224.11 44.266H225.79C226.462 44.266 226.96 44.416 227.284 44.716C227.612 45.016 227.788 45.488 227.812 46.132C227.82 46.228 227.794 46.306 227.734 46.366C227.678 46.422 227.6 46.45 227.5 46.45C227.408 46.45 227.334 46.422 227.278 46.366C227.222 46.31 227.19 46.234 227.182 46.138C227.166 45.678 227.054 45.356 226.846 45.172C226.638 44.988 226.286 44.896 225.79 44.896H224.11C223.586 44.896 223.222 45 223.018 45.208C222.814 45.412 222.712 45.776 222.712 46.3C222.712 46.824 222.814 47.19 223.018 47.398C223.226 47.602 223.594 47.704 224.122 47.704H225.766C226.51 47.704 227.054 47.878 227.398 48.226C227.742 48.57 227.914 49.112 227.914 49.852C227.914 50.592 227.742 51.134 227.398 51.478C227.054 51.818 226.51 51.988 225.766 51.988H224.038ZM231.683 52C231.059 52 230.601 51.856 230.309 51.568C230.021 51.276 229.877 50.818 229.877 50.194C229.877 49.57 230.023 49.112 230.315 48.82C230.607 48.528 231.063 48.382 231.683 48.382H234.413C234.405 47.854 234.285 47.486 234.053 47.278C233.825 47.066 233.435 46.96 232.883 46.96H232.187C231.679 46.96 231.307 47.014 231.071 47.122C230.835 47.23 230.689 47.414 230.633 47.674C230.605 47.774 230.567 47.848 230.519 47.896C230.475 47.94 230.403 47.962 230.303 47.962C230.199 47.962 230.117 47.934 230.057 47.878C230.001 47.818 229.981 47.738 229.997 47.638C230.049 47.182 230.255 46.85 230.615 46.642C230.979 46.434 231.503 46.33 232.187 46.33H232.883C233.631 46.33 234.177 46.504 234.521 46.852C234.869 47.196 235.043 47.742 235.043 48.49V51.682C235.043 51.894 234.939 52 234.731 52C234.519 52 234.413 51.894 234.413 51.682V51.088C234.029 51.696 233.343 52 232.355 52H231.683ZM231.683 51.37H232.355C232.743 51.37 233.083 51.328 233.375 51.244C233.671 51.156 233.909 51.016 234.089 50.824C234.269 50.632 234.377 50.376 234.413 50.056V49.012H231.683C231.239 49.012 230.931 49.098 230.759 49.27C230.591 49.438 230.507 49.746 230.507 50.194C230.507 50.638 230.591 50.946 230.759 51.118C230.931 51.286 231.239 51.37 231.683 51.37ZM241.945 46.33C242.157 46.33 242.263 46.434 242.263 46.642V51.682C242.263 51.894 242.157 52 241.945 52C241.737 52 241.633 51.894 241.633 51.682V51.112C241.253 51.704 240.565 52 239.569 52H239.233C238.485 52 237.937 51.826 237.589 51.478C237.245 51.13 237.073 50.582 237.073 49.834V46.642C237.073 46.434 237.177 46.33 237.385 46.33C237.597 46.33 237.703 46.434 237.703 46.642V49.834C237.703 50.406 237.815 50.806 238.039 51.034C238.267 51.258 238.665 51.37 239.233 51.37H239.569C240.189 51.37 240.677 51.27 241.033 51.07C241.389 50.87 241.589 50.564 241.633 50.152V46.642C241.633 46.434 241.737 46.33 241.945 46.33ZM239.299 45.586C239.155 45.458 239.143 45.316 239.263 45.16L240.289 43.942C240.421 43.782 240.563 43.77 240.715 43.906C240.859 44.03 240.871 44.17 240.751 44.326L239.725 45.544C239.597 45.704 239.455 45.718 239.299 45.586ZM246.509 52C245.761 52 245.213 51.826 244.865 51.478C244.517 51.13 244.343 50.582 244.343 49.834V48.49C244.343 47.742 244.517 47.196 244.865 46.852C245.213 46.504 245.761 46.33 246.509 46.33H249.023V43.99C249.023 43.782 249.129 43.678 249.341 43.678C249.549 43.678 249.653 43.782 249.653 43.99V51.682C249.653 51.894 249.549 52 249.341 52C249.129 52 249.023 51.894 249.023 51.682V51.166C248.851 51.442 248.599 51.65 248.267 51.79C247.935 51.93 247.501 52 246.965 52H246.509ZM246.509 51.37H246.965C247.589 51.37 248.087 51.272 248.459 51.076C248.835 50.876 249.023 50.578 249.023 50.182V46.96H246.509C245.937 46.96 245.537 47.074 245.309 47.302C245.085 47.526 244.973 47.922 244.973 48.49V49.834C244.973 50.406 245.085 50.806 245.309 51.034C245.537 51.258 245.937 51.37 246.509 51.37ZM252.262 49.408V49.846C252.262 50.41 252.374 50.806 252.598 51.034C252.826 51.258 253.226 51.37 253.798 51.37H254.782C255.286 51.37 255.652 51.306 255.88 51.178C256.112 51.046 256.25 50.82 256.294 50.5C256.31 50.4 256.342 50.324 256.39 50.272C256.442 50.22 256.52 50.194 256.624 50.194C256.728 50.194 256.806 50.224 256.858 50.284C256.914 50.34 256.936 50.42 256.924 50.524C256.872 51.028 256.67 51.4 256.318 51.64C255.966 51.88 255.454 52 254.782 52H253.798C253.05 52 252.502 51.828 252.154 51.484C251.806 51.136 251.632 50.59 251.632 49.846V48.49C251.632 47.734 251.806 47.184 252.154 46.84C252.502 46.492 253.05 46.322 253.798 46.33H254.782C255.53 46.33 256.076 46.504 256.42 46.852C256.768 47.196 256.942 47.742 256.942 48.49V49.09C256.942 49.302 256.838 49.408 256.63 49.408H252.262ZM253.798 46.96C253.226 46.952 252.826 47.062 252.598 47.29C252.374 47.514 252.262 47.914 252.262 48.49V48.778H256.312V48.49C256.312 47.918 256.2 47.52 255.976 47.296C255.752 47.072 255.354 46.96 254.782 46.96H253.798Z" fill="white"/>
<path d="M21.3125 56.125C18.1875 56.1042 15.6667 55.7604 13.75 55.0938C11.8333 54.4271 10.4375 53.3958 9.5625 52C8.6875 50.625 8.25 48.875 8.25 46.75V37.0312C8.25 35.6146 7.94792 34.4792 7.34375 33.625C6.73958 32.7708 5.85417 32.1458 4.6875 31.75C3.52083 31.3542 2.08333 31.1562 0.375 31.1562V25.25C2.08333 25.25 3.52083 25.0625 4.6875 24.6875C5.85417 24.2917 6.73958 23.6667 7.34375 22.8125C7.94792 21.9375 8.25 20.8021 8.25 19.4062V9.625C8.25 7.4792 8.69792 5.7188 9.5938 4.3438C10.4896 2.9688 11.8958 1.9583 13.8125 1.3125C15.75 0.6458 18.25 0.3125 21.3125 0.3125V5.9375C19.9792 5.9792 18.8333 6.1667 17.875 6.5C16.9167 6.8333 16.1875 7.3854 15.6875 8.1562C15.1875 8.9062 14.9375 9.9375 14.9375 11.25V20.625C14.9375 22.6875 14.3438 24.3333 13.1562 25.5625C11.9896 26.7917 10.2396 27.6042 7.90625 28V28.375C10.2604 28.7292 12.0208 29.5312 13.1875 30.7812C14.3542 32.0104 14.9375 33.6562 14.9375 35.7188V45.1875C14.9375 46.5 15.1875 47.5312 15.6875 48.2812C16.1875 49.0521 16.9167 49.5938 17.875 49.9062C18.8333 50.2396 19.9792 50.4167 21.3125 50.4375V56.125ZM57.9688 56.125V50.4375C59.2812 50.3958 60.4062 50.2083 61.3438 49.875C62.3021 49.5625 63.0312 49.0208 63.5312 48.25C64.0521 47.5 64.3125 46.4688 64.3125 45.1562V35.75C64.3125 33.6875 64.9062 32.0417 66.0938 30.8125C67.2812 29.5625 69.0312 28.7604 71.3438 28.4062V28.0312C69.0104 27.6354 67.25 26.8229 66.0625 25.5938C64.8958 24.3646 64.3125 22.7188 64.3125 20.6562V11.2188C64.3125 9.9062 64.0625 8.875 63.5625 8.125C63.0625 7.3542 62.3333 6.8021 61.375 6.4688C60.4375 6.1354 59.3021 5.9583 57.9688 5.9375V0.3125C61.0729 0.3125 63.5833 0.6458 65.5 1.3125C67.4167 1.9792 68.8125 3 69.6875 4.375C70.5625 5.75 71 7.5104 71 9.6562V19.375C71 20.7917 71.3021 21.9375 71.9062 22.8125C72.5104 23.6667 73.3958 24.2917 74.5625 24.6875C75.7292 25.0625 77.1667 25.25 78.875 25.25V31.1562C77.1667 31.1562 75.7292 31.3542 74.5625 31.75C73.3958 32.1458 72.5104 32.7708 71.9062 33.625C71.3021 34.4792 71 35.6042 71 37V46.7812C71 48.9062 70.5521 50.6562 69.6562 52.0312C68.7604 53.4271 67.3542 54.4583 65.4375 55.125C63.5208 55.7917 61.0312 56.125 57.9688 56.125Z" fill="#38B6FF"/>
<path d="M54.375 39.5625C54.375 42.2708 53.7083 44.6042 52.375 46.5625C51.0625 48.5208 49.1667 50.0208 46.6875 51.0625C44.2292 52.1042 41.2917 52.625 37.875 52.625C36.2083 52.625 34.6146 52.5312 33.0938 52.3438C31.5729 52.1562 30.1354 51.8854 28.7812 51.5312C27.4479 51.1562 26.2292 50.7083 25.125 50.1875V43.125C26.9792 43.9375 29.0521 44.6771 31.3438 45.3438C33.6354 45.9896 35.9688 46.3125 38.3438 46.3125C40.2812 46.3125 41.8854 46.0625 43.1562 45.5625C44.4479 45.0417 45.4062 44.3125 46.0312 43.375C46.6562 42.4167 46.9688 41.3021 46.9688 40.0312C46.9688 38.6771 46.6042 37.5312 45.875 36.5938C45.1458 35.6562 44.0417 34.8021 42.5625 34.0312C41.1042 33.2396 39.2708 32.3958 37.0625 31.5C35.5625 30.8958 34.125 30.2083 32.75 29.4375C31.3958 28.6667 30.1875 27.7604 29.125 26.7188C28.0625 25.6771 27.2188 24.4479 26.5938 23.0312C25.9896 21.5938 25.6875 19.9062 25.6875 17.9688C25.6875 15.3854 26.3021 13.1771 27.5312 11.3438C28.7812 9.51039 30.5312 8.10419 32.7812 7.12499C35.0521 6.14579 37.6979 5.65619 40.7188 5.65619C43.1146 5.65619 45.3646 5.90619 47.4688 6.40619C49.5938 6.90619 51.6771 7.61459 53.7188 8.53119L51.3438 14.5625C49.4688 13.7917 47.6458 13.1771 45.875 12.7188C44.125 12.2604 42.3333 12.0312 40.5 12.0312C38.9167 12.0312 37.5729 12.2708 36.4688 12.75C35.3646 13.2292 34.5208 13.9062 33.9375 14.7812C33.375 15.6354 33.0938 16.6562 33.0938 17.8438C33.0938 19.1771 33.4167 20.3021 34.0625 21.2188C34.7292 22.1146 35.75 22.9375 37.125 23.6875C38.5208 24.4375 40.3125 25.2708 42.5 26.1875C45.0208 27.2292 47.1562 28.3229 48.9062 29.4688C50.6771 30.6146 52.0312 31.9896 52.9688 33.5938C53.9062 35.1771 54.375 37.1667 54.375 39.5625Z" fill="white"/>
</svg>
