<svg width="93" height="86" viewBox="0 0 93 86" fill="none" xmlns="http://www.w3.org/2000/svg">
<g clip-path="url(#clip0_2_2)">
<rect width="93" height="86" fill="#1956B4"/>
<path d="M28.3125 71.125C25.1875 71.1042 22.6667 70.7604 20.75 70.0938C18.8333 69.4271 17.4375 68.3958 16.5625 67C15.6875 65.625 15.25 63.875 15.25 61.75V52.0312C15.25 50.6146 14.9479 49.4792 14.3438 48.625C13.7396 47.7708 12.8542 47.1458 11.6875 46.75C10.5208 46.3542 9.08333 46.1562 7.375 46.1562V40.25C9.08333 40.25 10.5208 40.0625 11.6875 39.6875C12.8542 39.2917 13.7396 38.6667 14.3438 37.8125C14.9479 36.9375 15.25 35.8021 15.25 34.4062V24.625C15.25 22.4792 15.6979 20.7188 16.5938 19.3438C17.4896 17.9688 18.8958 16.9583 20.8125 16.3125C22.75 15.6458 25.25 15.3125 28.3125 15.3125V20.9375C26.9792 20.9792 25.8333 21.1667 24.875 21.5C23.9167 21.8333 23.1875 22.3854 22.6875 23.1562C22.1875 23.9062 21.9375 24.9375 21.9375 26.25V35.625C21.9375 37.6875 21.3438 39.3333 20.1562 40.5625C18.9896 41.7917 17.2396 42.6042 14.9062 43V43.375C17.2604 43.7292 19.0208 44.5312 20.1875 45.7812C21.3542 47.0104 21.9375 48.6562 21.9375 50.7188V60.1875C21.9375 61.5 22.1875 62.5312 22.6875 63.2812C23.1875 64.0521 23.9167 64.5938 24.875 64.9062C25.8333 65.2396 26.9792 65.4167 28.3125 65.4375V71.125ZM64.9688 71.125V65.4375C66.2812 65.3958 67.4062 65.2083 68.3438 64.875C69.3021 64.5625 70.0312 64.0208 70.5312 63.25C71.0521 62.5 71.3125 61.4688 71.3125 60.1562V50.75C71.3125 48.6875 71.9062 47.0417 73.0938 45.8125C74.2812 44.5625 76.0312 43.7604 78.3438 43.4062V43.0312C76.0104 42.6354 74.25 41.8229 73.0625 40.5938C71.8958 39.3646 71.3125 37.7188 71.3125 35.6562V26.2188C71.3125 24.9062 71.0625 23.875 70.5625 23.125C70.0625 22.3542 69.3333 21.8021 68.375 21.4688C67.4375 21.1354 66.3021 20.9583 64.9688 20.9375V15.3125C68.0729 15.3125 70.5833 15.6458 72.5 16.3125C74.4167 16.9792 75.8125 18 76.6875 19.375C77.5625 20.75 78 22.5104 78 24.6562V34.375C78 35.7917 78.3021 36.9375 78.9062 37.8125C79.5104 38.6667 80.3958 39.2917 81.5625 39.6875C82.7292 40.0625 84.1667 40.25 85.875 40.25V46.1562C84.1667 46.1562 82.7292 46.3542 81.5625 46.75C80.3958 47.1458 79.5104 47.7708 78.9062 48.625C78.3021 49.4792 78 50.6042 78 52V61.7812C78 63.9062 77.5521 65.6562 76.6562 67.0312C75.7604 68.4271 74.3542 69.4583 72.4375 70.125C70.5208 70.7917 68.0312 71.125 64.9688 71.125Z" fill="#38B6FF"/>
<path d="M61.375 54.5625C61.375 57.2708 60.7083 59.6042 59.375 61.5625C58.0625 63.5208 56.1667 65.0208 53.6875 66.0625C51.2292 67.1042 48.2917 67.625 44.875 67.625C43.2083 67.625 41.6146 67.5312 40.0938 67.3438C38.5729 67.1562 37.1354 66.8854 35.7812 66.5312C34.4479 66.1562 33.2292 65.7083 32.125 65.1875V58.125C33.9792 58.9375 36.0521 59.6771 38.3438 60.3438C40.6354 60.9896 42.9688 61.3125 45.3438 61.3125C47.2812 61.3125 48.8854 61.0625 50.1562 60.5625C51.4479 60.0417 52.4062 59.3125 53.0312 58.375C53.6562 57.4167 53.9688 56.3021 53.9688 55.0312C53.9688 53.6771 53.6042 52.5312 52.875 51.5938C52.1458 50.6562 51.0417 49.8021 49.5625 49.0312C48.1042 48.2396 46.2708 47.3958 44.0625 46.5C42.5625 45.8958 41.125 45.2083 39.75 44.4375C38.3958 43.6667 37.1875 42.7604 36.125 41.7188C35.0625 40.6771 34.2188 39.4479 33.5938 38.0312C32.9896 36.5938 32.6875 34.9062 32.6875 32.9688C32.6875 30.3854 33.3021 28.1771 34.5312 26.3438C35.7812 24.5104 37.5312 23.1042 39.7812 22.125C42.0521 21.1458 44.6979 20.6562 47.7188 20.6562C50.1146 20.6562 52.3646 20.9062 54.4688 21.4062C56.5938 21.9062 58.6771 22.6146 60.7188 23.5312L58.3438 29.5625C56.4688 28.7917 54.6458 28.1771 52.875 27.7188C51.125 27.2604 49.3333 27.0312 47.5 27.0312C45.9167 27.0312 44.5729 27.2708 43.4688 27.75C42.3646 28.2292 41.5208 28.9062 40.9375 29.7812C40.375 30.6354 40.0938 31.6562 40.0938 32.8438C40.0938 34.1771 40.4167 35.3021 41.0625 36.2188C41.7292 37.1146 42.75 37.9375 44.125 38.6875C45.5208 39.4375 47.3125 40.2708 49.5 41.1875C52.0208 42.2292 54.1562 43.3229 55.9062 44.4688C57.6771 45.6146 59.0312 46.9896 59.9688 48.5938C60.9062 50.1771 61.375 52.1667 61.375 54.5625Z" fill="white"/>
</g>
<defs>
<clipPath id="clip0_2_2">
<rect width="93" height="86" fill="white"/>
</clipPath>
</defs>
</svg>
