<svg width="259" height="86" viewBox="0 0 259 86" fill="none" xmlns="http://www.w3.org/2000/svg">
<path d="M91.48 55V30.44H83.84V25.8H104.16V30.44H96.52V55H91.48ZM113.504 55V25.8H131.024V30.16H118.424V37.76H129.624V42.08H118.424V50.64H131.024V55H113.504ZM150.129 55.4C148.262 55.4 146.622 55.0533 145.209 54.36C143.822 53.64 142.742 52.64 141.969 51.36C141.222 50.0533 140.849 48.52 140.849 46.76V34.04C140.849 32.2533 141.222 30.72 141.969 29.44C142.742 28.16 143.822 27.1733 145.209 26.48C146.622 25.76 148.262 25.4 150.129 25.4C152.022 25.4 153.649 25.76 155.009 26.48C156.395 27.1733 157.475 28.16 158.249 29.44C159.022 30.72 159.409 32.2533 159.409 34.04H154.369C154.369 32.6533 153.995 31.6 153.249 30.88C152.529 30.16 151.489 29.8 150.129 29.8C148.769 29.8 147.715 30.16 146.969 30.88C146.222 31.6 145.849 32.64 145.849 34V46.76C145.849 48.12 146.222 49.1733 146.969 49.92C147.715 50.64 148.769 51 150.129 51C151.489 51 152.529 50.64 153.249 49.92C153.995 49.1733 154.369 48.12 154.369 46.76H159.409C159.409 48.4933 159.022 50.0133 158.249 51.32C157.475 52.6267 156.395 53.64 155.009 54.36C153.649 55.0533 152.022 55.4 150.129 55.4ZM178.033 55.4C176.033 55.4 174.3 55.0667 172.833 54.4C171.366 53.7333 170.233 52.7867 169.433 51.56C168.66 50.3067 168.26 48.84 168.233 47.16H173.233C173.233 48.36 173.66 49.3067 174.513 50C175.393 50.6667 176.58 51 178.073 51C179.513 51 180.633 50.6667 181.433 50C182.26 49.3333 182.673 48.4133 182.673 47.24C182.673 46.2533 182.38 45.4 181.793 44.68C181.233 43.9333 180.42 43.4267 179.353 43.16L175.993 42.24C173.7 41.6533 171.926 40.6 170.673 39.08C169.446 37.56 168.833 35.72 168.833 33.56C168.833 31.9067 169.206 30.4667 169.953 29.24C170.7 28.0133 171.753 27.0667 173.113 26.4C174.5 25.7333 176.126 25.4 177.993 25.4C180.82 25.4 183.06 26.1333 184.713 27.6C186.366 29.04 187.206 30.9867 187.233 33.44H182.233C182.233 32.2933 181.86 31.4 181.113 30.76C180.366 30.0933 179.313 29.76 177.953 29.76C176.646 29.76 175.633 30.0667 174.913 30.68C174.193 31.2933 173.833 32.16 173.833 33.28C173.833 34.2933 174.1 35.16 174.633 35.88C175.193 36.5733 175.993 37.0667 177.033 37.36L180.513 38.32C182.833 38.9067 184.606 39.96 185.833 41.48C187.06 42.9733 187.673 44.8267 187.673 47.04C187.673 48.6933 187.273 50.16 186.473 51.44C185.673 52.6933 184.553 53.6667 183.113 54.36C181.673 55.0533 179.98 55.4 178.033 55.4ZM195.338 55L202.698 25.8H209.138L216.537 55H211.418L209.818 47.92H202.058L200.458 55H195.338ZM202.978 43.84H208.898L207.138 36C206.844 34.6933 206.591 33.52 206.378 32.48C206.164 31.4133 206.018 30.64 205.938 30.16C205.858 30.64 205.711 31.4133 205.498 32.48C205.311 33.52 205.058 34.68 204.738 35.96L202.978 43.84ZM224.922 55V25.8H233.602C235.575 25.8 237.282 26.1733 238.722 26.92C240.189 27.6667 241.322 28.72 242.122 30.08C242.922 31.44 243.322 33.0533 243.322 34.92V45.84C243.322 47.68 242.922 49.2933 242.122 50.68C241.322 52.04 240.189 53.1067 238.722 53.88C237.282 54.6267 235.575 55 233.602 55H224.922ZM229.922 50.4H233.602C235.042 50.4 236.189 50 237.042 49.2C237.895 48.3733 238.322 47.2533 238.322 45.84V34.92C238.322 33.5333 237.895 32.44 237.042 31.64C236.189 30.8133 235.042 30.4 233.602 30.4H229.922V50.4Z" fill="white"/>
<path d="M90.462 71C89.594 71 88.96 70.8 88.56 70.4C88.16 70 87.96 69.366 87.96 68.498V65.768C87.96 64.892 88.158 64.256 88.554 63.86C88.954 63.464 89.586 63.266 90.45 63.266H91.902C92.638 63.266 93.186 63.42 93.546 63.728C93.906 64.032 94.104 64.522 94.14 65.198C94.152 65.306 94.13 65.388 94.074 65.444C94.022 65.5 93.944 65.528 93.84 65.528C93.64 65.528 93.53 65.422 93.51 65.21C93.482 64.714 93.346 64.372 93.102 64.184C92.858 63.992 92.458 63.896 91.902 63.896H90.45C89.99 63.896 89.624 63.956 89.352 64.076C89.08 64.192 88.884 64.388 88.764 64.664C88.648 64.936 88.59 65.304 88.59 65.768V68.498C88.59 68.962 88.65 69.33 88.77 69.602C88.89 69.874 89.086 70.07 89.358 70.19C89.63 70.31 89.998 70.37 90.462 70.37H91.902C92.31 70.37 92.632 70.32 92.868 70.22C93.108 70.12 93.278 69.952 93.378 69.716C93.478 69.48 93.528 69.154 93.528 68.738V67.988L92.214 67.976C92.006 67.976 91.902 67.87 91.902 67.658C91.902 67.45 92.006 67.346 92.214 67.346L93.846 67.358C94.054 67.358 94.158 67.462 94.158 67.67V68.738C94.158 69.53 93.98 70.106 93.624 70.466C93.268 70.822 92.694 71 91.902 71H90.462ZM96.1017 68.408V68.846C96.1017 69.41 96.2137 69.806 96.4377 70.034C96.6657 70.258 97.0657 70.37 97.6377 70.37H98.6217C99.1257 70.37 99.4917 70.306 99.7197 70.178C99.9517 70.046 100.09 69.82 100.134 69.5C100.15 69.4 100.182 69.324 100.23 69.272C100.282 69.22 100.36 69.194 100.464 69.194C100.568 69.194 100.646 69.224 100.698 69.284C100.754 69.34 100.776 69.42 100.764 69.524C100.712 70.028 100.51 70.4 100.158 70.64C99.8057 70.88 99.2937 71 98.6217 71H97.6377C96.8897 71 96.3417 70.828 95.9937 70.484C95.6457 70.136 95.4717 69.59 95.4717 68.846V67.49C95.4717 66.734 95.6457 66.184 95.9937 65.84C96.3417 65.492 96.8897 65.322 97.6377 65.33H98.6217C99.3697 65.33 99.9157 65.504 100.26 65.852C100.608 66.196 100.782 66.742 100.782 67.49V68.09C100.782 68.302 100.678 68.408 100.47 68.408H96.1017ZM97.6377 65.96C97.0657 65.952 96.6657 66.062 96.4377 66.29C96.2137 66.514 96.1017 66.914 96.1017 67.49V67.778H100.152V67.49C100.152 66.918 100.04 66.52 99.8157 66.296C99.5917 66.072 99.1937 65.96 98.6217 65.96H97.6377ZM104.106 70.988C103.614 70.988 103.238 70.884 102.978 70.676C102.718 70.464 102.562 70.142 102.51 69.71C102.498 69.606 102.52 69.526 102.576 69.47C102.632 69.41 102.714 69.38 102.822 69.38C102.922 69.38 102.996 69.406 103.044 69.458C103.096 69.51 103.13 69.588 103.146 69.692C103.182 69.94 103.272 70.114 103.416 70.214C103.564 70.31 103.794 70.358 104.106 70.358H106.074C106.446 70.358 106.702 70.288 106.842 70.148C106.982 70.008 107.052 69.752 107.052 69.38C107.052 69.004 106.982 68.746 106.842 68.606C106.702 68.466 106.446 68.396 106.074 68.396H104.13C103.61 68.396 103.222 68.272 102.966 68.024C102.714 67.772 102.588 67.386 102.588 66.866C102.588 66.334 102.714 65.944 102.966 65.696C103.218 65.444 103.606 65.318 104.13 65.318H106.014C106.918 65.318 107.42 65.718 107.52 66.518C107.536 66.622 107.514 66.704 107.454 66.764C107.398 66.82 107.318 66.848 107.214 66.848C107.114 66.848 107.038 66.822 106.986 66.77C106.938 66.718 106.904 66.642 106.884 66.542C106.856 66.318 106.774 66.164 106.638 66.08C106.506 65.992 106.298 65.948 106.014 65.948H104.13C103.782 65.948 103.542 66.012 103.41 66.14C103.282 66.268 103.218 66.51 103.218 66.866C103.218 67.206 103.284 67.442 103.416 67.574C103.548 67.702 103.786 67.766 104.13 67.766H106.074C106.626 67.766 107.032 67.898 107.292 68.162C107.552 68.422 107.682 68.828 107.682 69.38C107.682 69.928 107.552 70.334 107.292 70.598C107.032 70.858 106.626 70.988 106.074 70.988H104.106ZM111.883 71C111.147 71 110.609 70.83 110.269 70.49C109.929 70.15 109.759 69.614 109.759 68.882V65.96H109.045C108.833 65.96 108.727 65.854 108.727 65.642C108.727 65.434 108.833 65.33 109.045 65.33H109.759V64.04C109.759 63.828 109.863 63.722 110.071 63.722C110.283 63.722 110.389 63.828 110.389 64.04V65.33H111.895C112.103 65.33 112.207 65.434 112.207 65.642C112.207 65.854 112.103 65.96 111.895 65.96H110.389V68.882C110.389 69.442 110.497 69.83 110.713 70.046C110.933 70.262 111.323 70.37 111.883 70.37C111.999 70.37 112.081 70.396 112.129 70.448C112.181 70.5 112.207 70.578 112.207 70.682C112.207 70.894 112.099 71 111.883 71ZM115.191 71C114.567 71 114.109 70.856 113.817 70.568C113.529 70.276 113.385 69.818 113.385 69.194C113.385 68.57 113.531 68.112 113.823 67.82C114.115 67.528 114.571 67.382 115.191 67.382H117.921C117.913 66.854 117.793 66.486 117.561 66.278C117.333 66.066 116.943 65.96 116.391 65.96H115.695C115.187 65.96 114.815 66.014 114.579 66.122C114.343 66.23 114.197 66.414 114.141 66.674C114.113 66.774 114.075 66.848 114.027 66.896C113.983 66.94 113.911 66.962 113.811 66.962C113.707 66.962 113.625 66.934 113.565 66.878C113.509 66.818 113.489 66.738 113.505 66.638C113.557 66.182 113.763 65.85 114.123 65.642C114.487 65.434 115.011 65.33 115.695 65.33H116.391C117.139 65.33 117.685 65.504 118.029 65.852C118.377 66.196 118.551 66.742 118.551 67.49V70.682C118.551 70.894 118.447 71 118.239 71C118.027 71 117.921 70.894 117.921 70.682V70.088C117.537 70.696 116.851 71 115.863 71H115.191ZM115.191 70.37H115.863C116.251 70.37 116.591 70.328 116.883 70.244C117.179 70.156 117.417 70.016 117.597 69.824C117.777 69.632 117.885 69.376 117.921 69.056V68.012H115.191C114.747 68.012 114.439 68.098 114.267 68.27C114.099 68.438 114.015 68.746 114.015 69.194C114.015 69.638 114.099 69.946 114.267 70.118C114.439 70.286 114.747 70.37 115.191 70.37ZM116.739 64.364C116.511 64.364 116.327 64.312 116.187 64.208C116.051 64.104 115.939 64.008 115.851 63.92C115.759 63.824 115.677 63.752 115.605 63.704C115.533 63.652 115.437 63.626 115.317 63.626C115.169 63.626 115.057 63.666 114.981 63.746C114.909 63.826 114.845 63.956 114.789 64.136C114.761 64.204 114.721 64.26 114.669 64.304C114.621 64.344 114.555 64.356 114.471 64.34C114.351 64.324 114.275 64.274 114.243 64.19C114.211 64.102 114.209 64.026 114.237 63.962C114.341 63.65 114.481 63.42 114.657 63.272C114.833 63.124 115.053 63.05 115.317 63.05C115.565 63.05 115.763 63.104 115.911 63.212C116.059 63.32 116.177 63.422 116.265 63.518C116.373 63.622 116.457 63.692 116.517 63.728C116.581 63.764 116.655 63.782 116.739 63.782C116.871 63.782 116.975 63.744 117.051 63.668C117.127 63.592 117.193 63.468 117.249 63.296C117.277 63.22 117.313 63.164 117.357 63.128C117.405 63.088 117.477 63.072 117.573 63.08C117.689 63.096 117.763 63.146 117.795 63.23C117.827 63.314 117.831 63.388 117.807 63.452C117.699 63.744 117.559 63.97 117.387 64.13C117.219 64.286 117.003 64.364 116.739 64.364ZM122.692 71C121.944 71 121.396 70.828 121.048 70.484C120.7 70.136 120.526 69.59 120.526 68.846V67.49C120.526 66.734 120.7 66.184 121.048 65.84C121.396 65.492 121.944 65.322 122.692 65.33H123.676C124.424 65.33 124.97 65.504 125.314 65.852C125.662 66.196 125.836 66.742 125.836 67.49V68.834C125.836 69.582 125.662 70.13 125.314 70.478C124.97 70.826 124.424 71 123.676 71H122.692ZM121.156 68.846C121.156 69.41 121.268 69.806 121.492 70.034C121.72 70.258 122.12 70.37 122.692 70.37H123.676C124.248 70.37 124.646 70.258 124.87 70.034C125.094 69.806 125.206 69.406 125.206 68.834V67.49C125.206 66.918 125.094 66.52 124.87 66.296C124.646 66.072 124.248 65.96 123.676 65.96H122.692C122.308 65.956 122.004 66.002 121.78 66.098C121.556 66.194 121.396 66.354 121.3 66.578C121.204 66.802 121.156 67.106 121.156 67.49V68.846ZM133.217 71.006C133.121 71.006 133.043 70.978 132.983 70.922C132.927 70.866 132.899 70.79 132.899 70.694V63.89H130.349C130.253 63.89 130.175 63.862 130.115 63.806C130.059 63.75 130.031 63.674 130.031 63.578C130.031 63.482 130.059 63.406 130.115 63.35C130.175 63.29 130.253 63.26 130.349 63.26H136.085C136.181 63.26 136.257 63.29 136.313 63.35C136.369 63.406 136.397 63.482 136.397 63.578C136.397 63.674 136.369 63.75 136.313 63.806C136.257 63.862 136.181 63.89 136.085 63.89H133.529V70.694C133.529 70.786 133.499 70.862 133.439 70.922C133.383 70.978 133.309 71.006 133.217 71.006ZM136.883 68.408V68.846C136.883 69.41 136.995 69.806 137.219 70.034C137.447 70.258 137.847 70.37 138.419 70.37H139.403C139.907 70.37 140.273 70.306 140.501 70.178C140.733 70.046 140.871 69.82 140.915 69.5C140.931 69.4 140.963 69.324 141.011 69.272C141.063 69.22 141.141 69.194 141.245 69.194C141.349 69.194 141.427 69.224 141.479 69.284C141.535 69.34 141.557 69.42 141.545 69.524C141.493 70.028 141.291 70.4 140.939 70.64C140.587 70.88 140.075 71 139.403 71H138.419C137.671 71 137.123 70.828 136.775 70.484C136.427 70.136 136.253 69.59 136.253 68.846V67.49C136.253 66.734 136.427 66.184 136.775 65.84C137.123 65.492 137.671 65.322 138.419 65.33H139.403C140.151 65.33 140.697 65.504 141.041 65.852C141.389 66.196 141.563 66.742 141.563 67.49V68.09C141.563 68.302 141.459 68.408 141.251 68.408H136.883ZM138.419 65.96C137.847 65.952 137.447 66.062 137.219 66.29C136.995 66.514 136.883 66.914 136.883 67.49V67.778H140.933V67.49C140.933 66.918 140.821 66.52 140.597 66.296C140.373 66.072 139.975 65.96 139.403 65.96H138.419ZM145.649 71C144.901 71 144.353 70.826 144.005 70.478C143.657 70.13 143.483 69.582 143.483 68.834V67.478C143.483 66.73 143.655 66.184 143.999 65.84C144.347 65.492 144.897 65.322 145.649 65.33H146.633C147.221 65.33 147.669 65.43 147.977 65.63C148.289 65.826 148.475 66.136 148.535 66.56C148.547 66.668 148.523 66.75 148.463 66.806C148.407 66.862 148.327 66.89 148.223 66.89C148.127 66.89 148.055 66.866 148.007 66.818C147.959 66.766 147.923 66.692 147.899 66.596C147.855 66.364 147.737 66.2 147.545 66.104C147.353 66.008 147.049 65.96 146.633 65.96H145.649C145.077 65.952 144.677 66.06 144.449 66.284C144.225 66.504 144.113 66.902 144.113 67.478V68.834C144.113 69.406 144.225 69.806 144.449 70.034C144.677 70.258 145.077 70.37 145.649 70.37H146.633C147.049 70.37 147.353 70.322 147.545 70.226C147.737 70.13 147.855 69.964 147.899 69.728C147.923 69.632 147.959 69.56 148.007 69.512C148.055 69.46 148.127 69.434 148.223 69.434C148.327 69.434 148.407 69.464 148.463 69.524C148.523 69.58 148.547 69.66 148.535 69.764C148.475 70.188 148.289 70.5 147.977 70.7C147.669 70.9 147.221 71 146.633 71H145.649ZM150.819 71C150.607 71 150.501 70.894 150.501 70.682V65.642C150.501 65.434 150.607 65.33 150.819 65.33C151.027 65.33 151.131 65.434 151.131 65.642V66.218C151.511 65.626 152.199 65.33 153.195 65.33H153.531C154.279 65.33 154.825 65.504 155.169 65.852C155.517 66.196 155.691 66.742 155.691 67.49V70.682C155.691 70.894 155.587 71 155.379 71C155.167 71 155.061 70.894 155.061 70.682V67.49C155.061 66.918 154.947 66.52 154.719 66.296C154.495 66.072 154.099 65.96 153.531 65.96H153.195C152.575 65.96 152.087 66.058 151.731 66.254C151.375 66.45 151.175 66.756 151.131 67.172V70.682C151.131 70.894 151.027 71 150.819 71ZM159.829 71C159.081 71 158.533 70.828 158.185 70.484C157.837 70.136 157.663 69.59 157.663 68.846V67.49C157.663 66.734 157.837 66.184 158.185 65.84C158.533 65.492 159.081 65.322 159.829 65.33H160.813C161.561 65.33 162.107 65.504 162.451 65.852C162.799 66.196 162.973 66.742 162.973 67.49V68.834C162.973 69.582 162.799 70.13 162.451 70.478C162.107 70.826 161.561 71 160.813 71H159.829ZM158.293 68.846C158.293 69.41 158.405 69.806 158.629 70.034C158.857 70.258 159.257 70.37 159.829 70.37H160.813C161.385 70.37 161.783 70.258 162.007 70.034C162.231 69.806 162.343 69.406 162.343 68.834V67.49C162.343 66.918 162.231 66.52 162.007 66.296C161.783 66.072 161.385 65.96 160.813 65.96H159.829C159.445 65.956 159.141 66.002 158.917 66.098C158.693 66.194 158.533 66.354 158.437 66.578C158.341 66.802 158.293 67.106 158.293 67.49V68.846ZM166.706 71C166.138 71 165.72 70.868 165.452 70.604C165.188 70.34 165.056 69.926 165.056 69.362V62.99C165.056 62.782 165.162 62.678 165.374 62.678C165.582 62.678 165.686 62.782 165.686 62.99V69.362C165.686 69.75 165.758 70.016 165.902 70.16C166.046 70.3 166.312 70.37 166.7 70.37C166.916 70.37 167.024 70.474 167.024 70.682C167.028 70.894 166.922 71 166.706 71ZM170.491 64.586C170.343 64.458 170.329 64.316 170.449 64.16L171.481 62.942C171.609 62.782 171.749 62.77 171.901 62.906C172.049 63.03 172.063 63.17 171.943 63.326L170.911 64.544C170.783 64.704 170.643 64.718 170.491 64.586ZM170.317 71C169.569 71 169.021 70.828 168.673 70.484C168.325 70.136 168.151 69.59 168.151 68.846V67.49C168.151 66.734 168.325 66.184 168.673 65.84C169.021 65.492 169.569 65.322 170.317 65.33H171.301C172.049 65.33 172.595 65.504 172.939 65.852C173.287 66.196 173.461 66.742 173.461 67.49V68.834C173.461 69.582 173.287 70.13 172.939 70.478C172.595 70.826 172.049 71 171.301 71H170.317ZM168.781 68.846C168.781 69.41 168.893 69.806 169.117 70.034C169.345 70.258 169.745 70.37 170.317 70.37H171.301C171.873 70.37 172.271 70.258 172.495 70.034C172.719 69.806 172.831 69.406 172.831 68.834V67.49C172.831 66.918 172.719 66.52 172.495 66.296C172.271 66.072 171.873 65.96 171.301 65.96H170.317C169.933 65.956 169.629 66.002 169.405 66.098C169.181 66.194 169.021 66.354 168.925 66.578C168.829 66.802 168.781 67.106 168.781 67.49V68.846ZM176.924 73.4C176.452 73.4 176.092 73.302 175.844 73.106C175.596 72.914 175.45 72.61 175.406 72.194C175.394 72.09 175.416 72.008 175.472 71.948C175.528 71.888 175.606 71.858 175.706 71.858C175.806 71.858 175.882 71.884 175.934 71.936C175.986 71.988 176.02 72.066 176.036 72.17C176.064 72.402 176.146 72.56 176.282 72.644C176.418 72.728 176.632 72.77 176.924 72.77H179.156C179.508 72.77 179.746 72.706 179.87 72.578C179.998 72.45 180.062 72.21 180.062 71.858V70.142C179.878 70.422 179.618 70.636 179.282 70.784C178.946 70.928 178.52 71 178.004 71H177.548C176.8 71 176.252 70.828 175.904 70.484C175.556 70.136 175.382 69.59 175.382 68.846V67.49C175.382 66.734 175.554 66.186 175.898 65.846C176.246 65.502 176.796 65.33 177.548 65.33H178.532C178.924 65.33 179.242 65.382 179.486 65.486C179.73 65.59 179.922 65.752 180.062 65.972V65.642C180.062 65.434 180.168 65.33 180.38 65.33C180.588 65.33 180.692 65.434 180.692 65.642V71.858C180.692 72.386 180.568 72.774 180.32 73.022C180.072 73.274 179.684 73.4 179.156 73.4H176.924ZM177.548 70.37H178.004C178.628 70.37 179.126 70.272 179.498 70.076C179.874 69.88 180.062 69.582 180.062 69.182V67.178C180.062 66.726 179.936 66.41 179.684 66.23C179.432 66.05 179.048 65.96 178.532 65.96H177.548C176.976 65.96 176.576 66.072 176.348 66.296C176.124 66.516 176.012 66.914 176.012 67.49V68.846C176.012 69.41 176.124 69.806 176.348 70.034C176.576 70.258 176.976 70.37 177.548 70.37ZM183.013 64.238C182.737 64.238 182.599 64.096 182.599 63.812V63.542C182.599 63.266 182.737 63.128 183.013 63.128H183.283C183.551 63.128 183.685 63.266 183.685 63.542V63.812C183.685 64.096 183.551 64.238 183.283 64.238H183.013ZM183.151 71C182.939 71 182.833 70.894 182.833 70.682V65.642C182.833 65.434 182.939 65.33 183.151 65.33C183.359 65.33 183.463 65.434 183.463 65.642V70.682C183.463 70.894 183.359 71 183.151 71ZM187.708 71C186.96 71 186.412 70.826 186.064 70.478C185.716 70.13 185.542 69.582 185.542 68.834V67.478C185.542 66.73 185.714 66.184 186.058 65.84C186.406 65.492 186.956 65.322 187.708 65.33H188.692C189.28 65.33 189.728 65.43 190.036 65.63C190.348 65.826 190.534 66.136 190.594 66.56C190.606 66.668 190.582 66.75 190.522 66.806C190.466 66.862 190.386 66.89 190.282 66.89C190.186 66.89 190.114 66.866 190.066 66.818C190.018 66.766 189.982 66.692 189.958 66.596C189.914 66.364 189.796 66.2 189.604 66.104C189.412 66.008 189.108 65.96 188.692 65.96H187.708C187.136 65.952 186.736 66.06 186.508 66.284C186.284 66.504 186.172 66.902 186.172 67.478V68.834C186.172 69.406 186.284 69.806 186.508 70.034C186.736 70.258 187.136 70.37 187.708 70.37H188.692C189.108 70.37 189.412 70.322 189.604 70.226C189.796 70.13 189.914 69.964 189.958 69.728C189.982 69.632 190.018 69.56 190.066 69.512C190.114 69.46 190.186 69.434 190.282 69.434C190.386 69.434 190.466 69.464 190.522 69.524C190.582 69.58 190.606 69.66 190.594 69.764C190.534 70.188 190.348 70.5 190.036 70.7C189.728 70.9 189.28 71 188.692 71H187.708ZM194.011 71C193.387 71 192.929 70.856 192.637 70.568C192.349 70.276 192.205 69.818 192.205 69.194C192.205 68.57 192.351 68.112 192.643 67.82C192.935 67.528 193.391 67.382 194.011 67.382H196.741C196.733 66.854 196.613 66.486 196.381 66.278C196.153 66.066 195.763 65.96 195.211 65.96H194.515C194.007 65.96 193.635 66.014 193.399 66.122C193.163 66.23 193.017 66.414 192.961 66.674C192.933 66.774 192.895 66.848 192.847 66.896C192.803 66.94 192.731 66.962 192.631 66.962C192.527 66.962 192.445 66.934 192.385 66.878C192.329 66.818 192.309 66.738 192.325 66.638C192.377 66.182 192.583 65.85 192.943 65.642C193.307 65.434 193.831 65.33 194.515 65.33H195.211C195.959 65.33 196.505 65.504 196.849 65.852C197.197 66.196 197.371 66.742 197.371 67.49V70.682C197.371 70.894 197.267 71 197.059 71C196.847 71 196.741 70.894 196.741 70.682V70.088C196.357 70.696 195.671 71 194.683 71H194.011ZM194.011 70.37H194.683C195.071 70.37 195.411 70.328 195.703 70.244C195.999 70.156 196.237 70.016 196.417 69.824C196.597 69.632 196.705 69.376 196.741 69.056V68.012H194.011C193.567 68.012 193.259 68.098 193.087 68.27C192.919 68.438 192.835 68.746 192.835 69.194C192.835 69.638 192.919 69.946 193.087 70.118C193.259 70.286 193.567 70.37 194.011 70.37ZM202.988 68.408V68.846C202.988 69.41 203.1 69.806 203.324 70.034C203.552 70.258 203.952 70.37 204.524 70.37H205.508C206.012 70.37 206.378 70.306 206.606 70.178C206.838 70.046 206.976 69.82 207.02 69.5C207.036 69.4 207.068 69.324 207.116 69.272C207.168 69.22 207.246 69.194 207.35 69.194C207.454 69.194 207.532 69.224 207.584 69.284C207.64 69.34 207.662 69.42 207.65 69.524C207.598 70.028 207.396 70.4 207.044 70.64C206.692 70.88 206.18 71 205.508 71H204.524C203.776 71 203.228 70.828 202.88 70.484C202.532 70.136 202.358 69.59 202.358 68.846V67.49C202.358 66.734 202.532 66.184 202.88 65.84C203.228 65.492 203.776 65.322 204.524 65.33H205.508C206.256 65.33 206.802 65.504 207.146 65.852C207.494 66.196 207.668 66.742 207.668 67.49V68.09C207.668 68.302 207.564 68.408 207.356 68.408H202.988ZM204.524 65.96C203.952 65.952 203.552 66.062 203.324 66.29C203.1 66.514 202.988 66.914 202.988 67.49V67.778H207.038V67.49C207.038 66.918 206.926 66.52 206.702 66.296C206.478 66.072 206.08 65.96 205.508 65.96H204.524ZM216.105 65.318C216.749 65.318 217.209 65.482 217.485 65.81C217.765 66.138 217.905 66.68 217.905 67.436V70.694C217.905 70.902 217.801 71.006 217.593 71.006C217.381 71.006 217.275 70.902 217.275 70.694V67.436C217.275 66.908 217.185 66.528 217.005 66.296C216.825 66.064 216.525 65.948 216.105 65.948H215.607C215.083 65.948 214.707 66.064 214.479 66.296C214.255 66.528 214.143 66.908 214.143 67.436V70.694C214.143 70.902 214.039 71.006 213.831 71.006C213.619 71.006 213.513 70.902 213.513 70.694V67.436C213.513 66.908 213.423 66.528 213.243 66.296C213.063 66.064 212.763 65.948 212.343 65.948H211.845C211.321 65.948 210.945 66.064 210.717 66.296C210.493 66.528 210.381 66.908 210.381 67.436V70.694C210.381 70.902 210.277 71.006 210.069 71.006C209.857 71.006 209.751 70.902 209.751 70.694V65.642C209.751 65.434 209.857 65.33 210.069 65.33C210.277 65.33 210.381 65.434 210.381 65.642V66.11C210.557 65.826 210.765 65.624 211.005 65.504C211.249 65.38 211.557 65.318 211.929 65.318H212.343C212.763 65.318 213.099 65.392 213.351 65.54C213.607 65.684 213.809 65.922 213.957 66.254C214.133 65.922 214.349 65.684 214.605 65.54C214.861 65.392 215.195 65.318 215.607 65.318H216.105ZM225.038 70.988C224.322 70.988 223.79 70.83 223.442 70.514C223.098 70.194 222.914 69.692 222.89 69.008C222.886 68.912 222.912 68.836 222.968 68.78C223.028 68.72 223.106 68.69 223.202 68.69C223.298 68.69 223.374 68.718 223.43 68.774C223.486 68.83 223.518 68.906 223.526 69.002C223.542 69.506 223.662 69.858 223.886 70.058C224.11 70.258 224.494 70.358 225.038 70.358H226.766C227.334 70.358 227.728 70.248 227.948 70.028C228.172 69.804 228.284 69.412 228.284 68.852C228.284 68.284 228.172 67.89 227.948 67.67C227.728 67.446 227.334 67.334 226.766 67.334H225.122C224.418 67.334 223.902 67.17 223.574 66.842C223.246 66.514 223.082 66 223.082 65.3C223.082 64.6 223.244 64.086 223.568 63.758C223.896 63.43 224.41 63.266 225.11 63.266H226.79C227.462 63.266 227.96 63.416 228.284 63.716C228.612 64.016 228.788 64.488 228.812 65.132C228.82 65.228 228.794 65.306 228.734 65.366C228.678 65.422 228.6 65.45 228.5 65.45C228.408 65.45 228.334 65.422 228.278 65.366C228.222 65.31 228.19 65.234 228.182 65.138C228.166 64.678 228.054 64.356 227.846 64.172C227.638 63.988 227.286 63.896 226.79 63.896H225.11C224.586 63.896 224.222 64 224.018 64.208C223.814 64.412 223.712 64.776 223.712 65.3C223.712 65.824 223.814 66.19 224.018 66.398C224.226 66.602 224.594 66.704 225.122 66.704H226.766C227.51 66.704 228.054 66.878 228.398 67.226C228.742 67.57 228.914 68.112 228.914 68.852C228.914 69.592 228.742 70.134 228.398 70.478C228.054 70.818 227.51 70.988 226.766 70.988H225.038ZM232.683 71C232.059 71 231.601 70.856 231.309 70.568C231.021 70.276 230.877 69.818 230.877 69.194C230.877 68.57 231.023 68.112 231.315 67.82C231.607 67.528 232.063 67.382 232.683 67.382H235.413C235.405 66.854 235.285 66.486 235.053 66.278C234.825 66.066 234.435 65.96 233.883 65.96H233.187C232.679 65.96 232.307 66.014 232.071 66.122C231.835 66.23 231.689 66.414 231.633 66.674C231.605 66.774 231.567 66.848 231.519 66.896C231.475 66.94 231.403 66.962 231.303 66.962C231.199 66.962 231.117 66.934 231.057 66.878C231.001 66.818 230.981 66.738 230.997 66.638C231.049 66.182 231.255 65.85 231.615 65.642C231.979 65.434 232.503 65.33 233.187 65.33H233.883C234.631 65.33 235.177 65.504 235.521 65.852C235.869 66.196 236.043 66.742 236.043 67.49V70.682C236.043 70.894 235.939 71 235.731 71C235.519 71 235.413 70.894 235.413 70.682V70.088C235.029 70.696 234.343 71 233.355 71H232.683ZM232.683 70.37H233.355C233.743 70.37 234.083 70.328 234.375 70.244C234.671 70.156 234.909 70.016 235.089 69.824C235.269 69.632 235.377 69.376 235.413 69.056V68.012H232.683C232.239 68.012 231.931 68.098 231.759 68.27C231.591 68.438 231.507 68.746 231.507 69.194C231.507 69.638 231.591 69.946 231.759 70.118C231.931 70.286 232.239 70.37 232.683 70.37ZM242.945 65.33C243.157 65.33 243.263 65.434 243.263 65.642V70.682C243.263 70.894 243.157 71 242.945 71C242.737 71 242.633 70.894 242.633 70.682V70.112C242.253 70.704 241.565 71 240.569 71H240.233C239.485 71 238.937 70.826 238.589 70.478C238.245 70.13 238.073 69.582 238.073 68.834V65.642C238.073 65.434 238.177 65.33 238.385 65.33C238.597 65.33 238.703 65.434 238.703 65.642V68.834C238.703 69.406 238.815 69.806 239.039 70.034C239.267 70.258 239.665 70.37 240.233 70.37H240.569C241.189 70.37 241.677 70.27 242.033 70.07C242.389 69.87 242.589 69.564 242.633 69.152V65.642C242.633 65.434 242.737 65.33 242.945 65.33ZM240.299 64.586C240.155 64.458 240.143 64.316 240.263 64.16L241.289 62.942C241.421 62.782 241.563 62.77 241.715 62.906C241.859 63.03 241.871 63.17 241.751 63.326L240.725 64.544C240.597 64.704 240.455 64.718 240.299 64.586ZM247.509 71C246.761 71 246.213 70.826 245.865 70.478C245.517 70.13 245.343 69.582 245.343 68.834V67.49C245.343 66.742 245.517 66.196 245.865 65.852C246.213 65.504 246.761 65.33 247.509 65.33H250.023V62.99C250.023 62.782 250.129 62.678 250.341 62.678C250.549 62.678 250.653 62.782 250.653 62.99V70.682C250.653 70.894 250.549 71 250.341 71C250.129 71 250.023 70.894 250.023 70.682V70.166C249.851 70.442 249.599 70.65 249.267 70.79C248.935 70.93 248.501 71 247.965 71H247.509ZM247.509 70.37H247.965C248.589 70.37 249.087 70.272 249.459 70.076C249.835 69.876 250.023 69.578 250.023 69.182V65.96H247.509C246.937 65.96 246.537 66.074 246.309 66.302C246.085 66.526 245.973 66.922 245.973 67.49V68.834C245.973 69.406 246.085 69.806 246.309 70.034C246.537 70.258 246.937 70.37 247.509 70.37ZM253.262 68.408V68.846C253.262 69.41 253.374 69.806 253.598 70.034C253.826 70.258 254.226 70.37 254.798 70.37H255.782C256.286 70.37 256.652 70.306 256.88 70.178C257.112 70.046 257.25 69.82 257.294 69.5C257.31 69.4 257.342 69.324 257.39 69.272C257.442 69.22 257.52 69.194 257.624 69.194C257.728 69.194 257.806 69.224 257.858 69.284C257.914 69.34 257.936 69.42 257.924 69.524C257.872 70.028 257.67 70.4 257.318 70.64C256.966 70.88 256.454 71 255.782 71H254.798C254.05 71 253.502 70.828 253.154 70.484C252.806 70.136 252.632 69.59 252.632 68.846V67.49C252.632 66.734 252.806 66.184 253.154 65.84C253.502 65.492 254.05 65.322 254.798 65.33H255.782C256.53 65.33 257.076 65.504 257.42 65.852C257.768 66.196 257.942 66.742 257.942 67.49V68.09C257.942 68.302 257.838 68.408 257.63 68.408H253.262ZM254.798 65.96C254.226 65.952 253.826 66.062 253.598 66.29C253.374 66.514 253.262 66.914 253.262 67.49V67.778H257.312V67.49C257.312 66.918 257.2 66.52 256.976 66.296C256.752 66.072 256.354 65.96 255.782 65.96H254.798Z" fill="white"/>
<path d="M22.3125 75.125C19.1875 75.1042 16.6667 74.7604 14.75 74.0938C12.8333 73.4271 11.4375 72.3958 10.5625 71C9.6875 69.625 9.25 67.875 9.25 65.75V56.0312C9.25 54.6146 8.94792 53.4792 8.34375 52.625C7.73958 51.7708 6.85417 51.1458 5.6875 50.75C4.52083 50.3542 3.08333 50.1562 1.375 50.1562V44.25C3.08333 44.25 4.52083 44.0625 5.6875 43.6875C6.85417 43.2917 7.73958 42.6667 8.34375 41.8125C8.94792 40.9375 9.25 39.8021 9.25 38.4062V28.625C9.25 26.4792 9.69792 24.7188 10.5938 23.3438C11.4896 21.9688 12.8958 20.9583 14.8125 20.3125C16.75 19.6458 19.25 19.3125 22.3125 19.3125V24.9375C20.9792 24.9792 19.8333 25.1667 18.875 25.5C17.9167 25.8333 17.1875 26.3854 16.6875 27.1562C16.1875 27.9062 15.9375 28.9375 15.9375 30.25V39.625C15.9375 41.6875 15.3438 43.3333 14.1562 44.5625C12.9896 45.7917 11.2396 46.6042 8.90625 47V47.375C11.2604 47.7292 13.0208 48.5312 14.1875 49.7812C15.3542 51.0104 15.9375 52.6562 15.9375 54.7188V64.1875C15.9375 65.5 16.1875 66.5312 16.6875 67.2812C17.1875 68.0521 17.9167 68.5938 18.875 68.9062C19.8333 69.2396 20.9792 69.4167 22.3125 69.4375V75.125ZM58.9688 75.125V69.4375C60.2812 69.3958 61.4062 69.2083 62.3438 68.875C63.3021 68.5625 64.0312 68.0208 64.5312 67.25C65.0521 66.5 65.3125 65.4688 65.3125 64.1562V54.75C65.3125 52.6875 65.9062 51.0417 67.0938 49.8125C68.2812 48.5625 70.0312 47.7604 72.3438 47.4062V47.0312C70.0104 46.6354 68.25 45.8229 67.0625 44.5938C65.8958 43.3646 65.3125 41.7188 65.3125 39.6562V30.2188C65.3125 28.9062 65.0625 27.875 64.5625 27.125C64.0625 26.3542 63.3333 25.8021 62.375 25.4688C61.4375 25.1354 60.3021 24.9583 58.9688 24.9375V19.3125C62.0729 19.3125 64.5833 19.6458 66.5 20.3125C68.4167 20.9792 69.8125 22 70.6875 23.375C71.5625 24.75 72 26.5104 72 28.6562V38.375C72 39.7917 72.3021 40.9375 72.9062 41.8125C73.5104 42.6667 74.3958 43.2917 75.5625 43.6875C76.7292 44.0625 78.1667 44.25 79.875 44.25V50.1562C78.1667 50.1562 76.7292 50.3542 75.5625 50.75C74.3958 51.1458 73.5104 51.7708 72.9062 52.625C72.3021 53.4792 72 54.6042 72 56V65.7812C72 67.9062 71.5521 69.6562 70.6562 71.0312C69.7604 72.4271 68.3542 73.4583 66.4375 74.125C64.5208 74.7917 62.0312 75.125 58.9688 75.125Z" fill="#38B6FF"/>
<path d="M55.375 58.5625C55.375 61.2708 54.7083 63.6042 53.375 65.5625C52.0625 67.5208 50.1667 69.0208 47.6875 70.0625C45.2292 71.1042 42.2917 71.625 38.875 71.625C37.2083 71.625 35.6146 71.5312 34.0938 71.3438C32.5729 71.1562 31.1354 70.8854 29.7812 70.5312C28.4479 70.1562 27.2292 69.7083 26.125 69.1875V62.125C27.9792 62.9375 30.0521 63.6771 32.3438 64.3438C34.6354 64.9896 36.9688 65.3125 39.3438 65.3125C41.2812 65.3125 42.8854 65.0625 44.1562 64.5625C45.4479 64.0417 46.4062 63.3125 47.0312 62.375C47.6562 61.4167 47.9688 60.3021 47.9688 59.0312C47.9688 57.6771 47.6042 56.5312 46.875 55.5938C46.1458 54.6562 45.0417 53.8021 43.5625 53.0312C42.1042 52.2396 40.2708 51.3958 38.0625 50.5C36.5625 49.8958 35.125 49.2083 33.75 48.4375C32.3958 47.6667 31.1875 46.7604 30.125 45.7188C29.0625 44.6771 28.2188 43.4479 27.5938 42.0312C26.9896 40.5938 26.6875 38.9062 26.6875 36.9688C26.6875 34.3854 27.3021 32.1771 28.5312 30.3438C29.7812 28.5104 31.5312 27.1042 33.7812 26.125C36.0521 25.1458 38.6979 24.6562 41.7188 24.6562C44.1146 24.6562 46.3646 24.9062 48.4688 25.4062C50.5938 25.9062 52.6771 26.6146 54.7188 27.5312L52.3438 33.5625C50.4688 32.7917 48.6458 32.1771 46.875 31.7188C45.125 31.2604 43.3333 31.0312 41.5 31.0312C39.9167 31.0312 38.5729 31.2708 37.4688 31.75C36.3646 32.2292 35.5208 32.9062 34.9375 33.7812C34.375 34.6354 34.0938 35.6562 34.0938 36.8438C34.0938 38.1771 34.4167 39.3021 35.0625 40.2188C35.7292 41.1146 36.75 41.9375 38.125 42.6875C39.5208 43.4375 41.3125 44.2708 43.5 45.1875C46.0208 46.2292 48.1562 47.3229 49.9062 48.4688C51.6771 49.6146 53.0312 50.9896 53.9688 52.5938C54.9062 54.1771 55.375 56.1667 55.375 58.5625Z" fill="white"/>
</svg>
