<svg width="257" height="56" viewBox="0 0 257 56" fill="none" xmlns="http://www.w3.org/2000/svg">
<path d="M90.105 35.6875V11.1275H82.465V6.48752H102.785V11.1275H95.145V35.6875H90.105ZM112.129 35.6875V6.48752H129.649V10.8475H117.049V18.4475H128.249V22.7675H117.049V31.3275H129.649V35.6875H112.129ZM148.754 36.0875C146.887 36.0875 145.247 35.7408 143.834 35.0475C142.447 34.3275 141.367 33.3275 140.594 32.0475C139.847 30.7408 139.474 29.2075 139.474 27.4475V14.7275C139.474 12.9408 139.847 11.4075 140.594 10.1275C141.367 8.84753 142.447 7.86082 143.834 7.16752C145.247 6.44752 146.887 6.08752 148.754 6.08752C150.647 6.08752 152.274 6.44752 153.634 7.16752C155.02 7.86082 156.1 8.84753 156.874 10.1275C157.647 11.4075 158.034 12.9408 158.034 14.7275H152.994C152.994 13.3408 152.62 12.2875 151.874 11.5675C151.154 10.8475 150.114 10.4875 148.754 10.4875C147.394 10.4875 146.34 10.8475 145.594 11.5675C144.847 12.2875 144.474 13.3275 144.474 14.6875V27.4475C144.474 28.8075 144.847 29.8608 145.594 30.6075C146.34 31.3275 147.394 31.6875 148.754 31.6875C150.114 31.6875 151.154 31.3275 151.874 30.6075C152.62 29.8608 152.994 28.8075 152.994 27.4475H158.034C158.034 29.1808 157.647 30.7008 156.874 32.0075C156.1 33.3142 155.02 34.3275 153.634 35.0475C152.274 35.7408 150.647 36.0875 148.754 36.0875ZM176.658 36.0875C174.658 36.0875 172.925 35.7542 171.458 35.0875C169.991 34.4208 168.858 33.4742 168.058 32.2475C167.285 30.9942 166.885 29.5275 166.858 27.8475H171.858C171.858 29.0475 172.285 29.9942 173.138 30.6875C174.018 31.3542 175.205 31.6875 176.698 31.6875C178.138 31.6875 179.258 31.3542 180.058 30.6875C180.885 30.0208 181.298 29.1008 181.298 27.9275C181.298 26.9408 181.005 26.0875 180.418 25.3675C179.858 24.6208 179.045 24.1142 177.978 23.8475L174.618 22.9275C172.325 22.3408 170.551 21.2875 169.298 19.7675C168.071 18.2475 167.458 16.4075 167.458 14.2475C167.458 12.5942 167.831 11.1542 168.578 9.92752C169.325 8.70082 170.378 7.75422 171.738 7.08752C173.125 6.42082 174.751 6.08752 176.618 6.08752C179.445 6.08752 181.685 6.82083 183.338 8.28753C184.991 9.72753 185.831 11.6742 185.858 14.1275H180.858C180.858 12.9808 180.485 12.0875 179.738 11.4475C178.991 10.7808 177.938 10.4475 176.578 10.4475C175.271 10.4475 174.258 10.7542 173.538 11.3675C172.818 11.9808 172.458 12.8475 172.458 13.9675C172.458 14.9808 172.725 15.8475 173.258 16.5675C173.818 17.2608 174.618 17.7542 175.658 18.0475L179.138 19.0075C181.458 19.5942 183.231 20.6475 184.458 22.1675C185.685 23.6608 186.298 25.5142 186.298 27.7275C186.298 29.3808 185.898 30.8475 185.098 32.1275C184.298 33.3808 183.178 34.3542 181.738 35.0475C180.298 35.7408 178.605 36.0875 176.658 36.0875ZM193.963 35.6875L201.323 6.48752H207.763L215.162 35.6875H210.043L208.443 28.6075H200.683L199.083 35.6875H193.963ZM201.603 24.5275H207.523L205.763 16.6875C205.469 15.3808 205.216 14.2075 205.003 13.1675C204.789 12.1008 204.643 11.3275 204.563 10.8475C204.483 11.3275 204.336 12.1008 204.123 13.1675C203.936 14.2075 203.683 15.3675 203.363 16.6475L201.603 24.5275ZM223.547 35.6875V6.48752H232.227C234.2 6.48752 235.907 6.86082 237.347 7.60752C238.814 8.35422 239.947 9.40752 240.747 10.7675C241.547 12.1275 241.947 13.7408 241.947 15.6075V26.5275C241.947 28.3675 241.547 29.9808 240.747 31.3675C239.947 32.7275 238.814 33.7942 237.347 34.5675C235.907 35.3142 234.2 35.6875 232.227 35.6875H223.547ZM228.547 31.0875H232.227C233.667 31.0875 234.814 30.6875 235.667 29.8875C236.52 29.0608 236.947 27.9408 236.947 26.5275V15.6075C236.947 14.2208 236.52 13.1275 235.667 12.3275C234.814 11.5008 233.667 11.0875 232.227 11.0875H228.547V31.0875Z" fill="#1956B4"/>
<path d="M89.087 51.6875C88.219 51.6875 87.585 51.4875 87.185 51.0875C86.785 50.6875 86.585 50.0535 86.585 49.1855V46.4555C86.585 45.5795 86.783 44.9435 87.179 44.5475C87.579 44.1515 88.211 43.9535 89.075 43.9535H90.527C91.263 43.9535 91.811 44.1075 92.171 44.4155C92.531 44.7195 92.729 45.2095 92.765 45.8855C92.777 45.9935 92.755 46.0755 92.699 46.1315C92.647 46.1875 92.569 46.2155 92.465 46.2155C92.265 46.2155 92.155 46.1095 92.135 45.8975C92.107 45.4015 91.971 45.0595 91.727 44.8715C91.483 44.6795 91.083 44.5835 90.527 44.5835H89.075C88.615 44.5835 88.249 44.6435 87.977 44.7635C87.705 44.8795 87.509 45.0755 87.389 45.3515C87.273 45.6235 87.215 45.9915 87.215 46.4555V49.1855C87.215 49.6495 87.275 50.0175 87.395 50.2895C87.515 50.5615 87.711 50.7575 87.983 50.8775C88.255 50.9975 88.623 51.0575 89.087 51.0575H90.527C90.935 51.0575 91.257 51.0075 91.493 50.9075C91.733 50.8075 91.903 50.6395 92.003 50.4035C92.103 50.1675 92.153 49.8415 92.153 49.4255V48.6755L90.839 48.6635C90.631 48.6635 90.527 48.5575 90.527 48.3455C90.527 48.1375 90.631 48.0335 90.839 48.0335L92.471 48.0455C92.679 48.0455 92.783 48.1495 92.783 48.3575V49.4255C92.783 50.2175 92.605 50.7935 92.249 51.1535C91.893 51.5095 91.319 51.6875 90.527 51.6875H89.087ZM94.7267 49.0955V49.5335C94.7267 50.0975 94.8387 50.4935 95.0627 50.7215C95.2907 50.9455 95.6907 51.0575 96.2627 51.0575H97.2467C97.7507 51.0575 98.1167 50.9935 98.3447 50.8655C98.5767 50.7335 98.715 50.5075 98.759 50.1875C98.775 50.0875 98.807 50.0115 98.855 49.9595C98.907 49.9075 98.985 49.8815 99.089 49.8815C99.193 49.8815 99.271 49.9115 99.323 49.9715C99.379 50.0275 99.401 50.1075 99.389 50.2115C99.337 50.7155 99.135 51.0875 98.783 51.3275C98.4307 51.5675 97.9187 51.6875 97.2467 51.6875H96.2627C95.5147 51.6875 94.9667 51.5155 94.6187 51.1715C94.2707 50.8235 94.0967 50.2775 94.0967 49.5335V48.1775C94.0967 47.4215 94.2707 46.8715 94.6187 46.5275C94.9667 46.1795 95.5147 46.0095 96.2627 46.0175H97.2467C97.9947 46.0175 98.5407 46.1915 98.885 46.5395C99.233 46.8835 99.407 47.4295 99.407 48.1775V48.7775C99.407 48.9895 99.303 49.0955 99.095 49.0955H94.7267ZM96.2627 46.6475C95.6907 46.6395 95.2907 46.7495 95.0627 46.9775C94.8387 47.2015 94.7267 47.6015 94.7267 48.1775V48.4655H98.777V48.1775C98.777 47.6055 98.665 47.2075 98.4407 46.9835C98.2167 46.7595 97.8187 46.6475 97.2467 46.6475H96.2627ZM102.731 51.6755C102.239 51.6755 101.863 51.5715 101.603 51.3635C101.343 51.1515 101.187 50.8295 101.135 50.3975C101.123 50.2935 101.145 50.2135 101.201 50.1575C101.257 50.0975 101.339 50.0675 101.447 50.0675C101.547 50.0675 101.621 50.0935 101.669 50.1455C101.721 50.1975 101.755 50.2755 101.771 50.3795C101.807 50.6275 101.897 50.8015 102.041 50.9015C102.189 50.9975 102.419 51.0455 102.731 51.0455H104.699C105.071 51.0455 105.327 50.9755 105.467 50.8355C105.607 50.6955 105.677 50.4395 105.677 50.0675C105.677 49.6915 105.607 49.4335 105.467 49.2935C105.327 49.1535 105.071 49.0835 104.699 49.0835H102.755C102.235 49.0835 101.847 48.9595 101.591 48.7115C101.339 48.4595 101.213 48.0735 101.213 47.5535C101.213 47.0215 101.339 46.6315 101.591 46.3835C101.843 46.1315 102.231 46.0055 102.755 46.0055H104.639C105.543 46.0055 106.045 46.4055 106.145 47.2055C106.161 47.3095 106.139 47.3915 106.079 47.4515C106.023 47.5075 105.943 47.5355 105.839 47.5355C105.739 47.5355 105.663 47.5095 105.611 47.4575C105.563 47.4055 105.529 47.3295 105.509 47.2295C105.481 47.0055 105.399 46.8515 105.263 46.7675C105.131 46.6795 104.923 46.6355 104.639 46.6355H102.755C102.407 46.6355 102.167 46.6995 102.035 46.8275C101.907 46.9555 101.843 47.1975 101.843 47.5535C101.843 47.8935 101.909 48.1295 102.041 48.2615C102.173 48.3895 102.411 48.4535 102.755 48.4535H104.699C105.251 48.4535 105.657 48.5855 105.917 48.8495C106.177 49.1095 106.307 49.5155 106.307 50.0675C106.307 50.6155 106.177 51.0215 105.917 51.2855C105.657 51.5455 105.251 51.6755 104.699 51.6755H102.731ZM110.508 51.6875C109.772 51.6875 109.234 51.5175 108.894 51.1775C108.554 50.8375 108.384 50.3015 108.384 49.5695V46.6475H107.67C107.458 46.6475 107.352 46.5415 107.352 46.3295C107.352 46.1215 107.458 46.0175 107.67 46.0175H108.384V44.7275C108.384 44.5155 108.488 44.4095 108.696 44.4095C108.908 44.4095 109.014 44.5155 109.014 44.7275V46.0175H110.52C110.728 46.0175 110.832 46.1215 110.832 46.3295C110.832 46.5415 110.728 46.6475 110.52 46.6475H109.014V49.5695C109.014 50.1295 109.122 50.5175 109.338 50.7335C109.558 50.9495 109.948 51.0575 110.508 51.0575C110.624 51.0575 110.706 51.0835 110.754 51.1355C110.806 51.1875 110.832 51.2655 110.832 51.3695C110.832 51.5815 110.724 51.6875 110.508 51.6875ZM113.816 51.6875C113.192 51.6875 112.734 51.5435 112.442 51.2555C112.154 50.9635 112.01 50.5055 112.01 49.8815C112.01 49.2575 112.156 48.7995 112.448 48.5075C112.74 48.2155 113.196 48.0695 113.816 48.0695H116.546C116.538 47.5415 116.418 47.1735 116.186 46.9655C115.958 46.7535 115.568 46.6475 115.016 46.6475H114.32C113.812 46.6475 113.44 46.7015 113.204 46.8095C112.968 46.9175 112.822 47.1015 112.766 47.3615C112.738 47.4615 112.7 47.5355 112.652 47.5835C112.608 47.6275 112.536 47.6495 112.436 47.6495C112.332 47.6495 112.25 47.6215 112.19 47.5655C112.134 47.5055 112.114 47.4255 112.13 47.3255C112.182 46.8695 112.388 46.5375 112.748 46.3295C113.112 46.1215 113.636 46.0175 114.32 46.0175H115.016C115.764 46.0175 116.31 46.1915 116.654 46.5395C117.002 46.8835 117.176 47.4295 117.176 48.1775V51.3695C117.176 51.5815 117.072 51.6875 116.864 51.6875C116.652 51.6875 116.546 51.5815 116.546 51.3695V50.7755C116.162 51.3835 115.476 51.6875 114.488 51.6875H113.816ZM113.816 51.0575H114.488C114.876 51.0575 115.216 51.0155 115.508 50.9315C115.804 50.8435 116.042 50.7035 116.222 50.5115C116.402 50.3195 116.51 50.0635 116.546 49.7435V48.6995H113.816C113.372 48.6995 113.064 48.7855 112.892 48.9575C112.724 49.1255 112.64 49.4335 112.64 49.8815C112.64 50.3255 112.724 50.6335 112.892 50.8055C113.064 50.9735 113.372 51.0575 113.816 51.0575ZM115.364 45.0515C115.136 45.0515 114.952 44.9995 114.812 44.8955C114.676 44.7915 114.564 44.6955 114.476 44.6075C114.384 44.5115 114.302 44.4395 114.23 44.3915C114.158 44.3395 114.062 44.3135 113.942 44.3135C113.794 44.3135 113.682 44.3535 113.606 44.4335C113.534 44.5135 113.47 44.6435 113.414 44.8235C113.386 44.8915 113.346 44.9475 113.294 44.9915C113.246 45.0315 113.18 45.0435 113.096 45.0275C112.976 45.0115 112.9 44.9615 112.868 44.8775C112.836 44.7895 112.834 44.7135 112.862 44.6495C112.966 44.3375 113.106 44.1075 113.282 43.9595C113.458 43.8115 113.678 43.7375 113.942 43.7375C114.19 43.7375 114.388 43.7915 114.536 43.8995C114.684 44.0075 114.802 44.1095 114.89 44.2055C114.998 44.3095 115.082 44.3795 115.142 44.4155C115.206 44.4515 115.28 44.4695 115.364 44.4695C115.496 44.4695 115.6 44.4315 115.676 44.3555C115.752 44.2795 115.818 44.1555 115.874 43.9835C115.902 43.9075 115.938 43.8515 115.982 43.8155C116.03 43.7755 116.102 43.7595 116.198 43.7675C116.314 43.7835 116.388 43.8335 116.42 43.9175C116.452 44.0015 116.456 44.0755 116.432 44.1395C116.324 44.4315 116.184 44.6575 116.012 44.8175C115.844 44.9735 115.628 45.0515 115.364 45.0515ZM121.317 51.6875C120.569 51.6875 120.021 51.5155 119.673 51.1715C119.325 50.8235 119.151 50.2775 119.151 49.5335V48.1775C119.151 47.4215 119.325 46.8715 119.673 46.5275C120.021 46.1795 120.569 46.0095 121.317 46.0175H122.301C123.049 46.0175 123.595 46.1915 123.939 46.5395C124.287 46.8835 124.461 47.4295 124.461 48.1775V49.5215C124.461 50.2695 124.287 50.8175 123.939 51.1655C123.595 51.5135 123.049 51.6875 122.301 51.6875H121.317ZM119.781 49.5335C119.781 50.0975 119.893 50.4935 120.117 50.7215C120.345 50.9455 120.745 51.0575 121.317 51.0575H122.301C122.873 51.0575 123.271 50.9455 123.495 50.7215C123.719 50.4935 123.831 50.0935 123.831 49.5215V48.1775C123.831 47.6055 123.719 47.2075 123.495 46.9835C123.271 46.7595 122.873 46.6475 122.301 46.6475H121.317C120.933 46.6435 120.629 46.6895 120.405 46.7855C120.181 46.8815 120.021 47.0415 119.925 47.2655C119.829 47.4895 119.781 47.7935 119.781 48.1775V49.5335ZM131.842 51.6935C131.746 51.6935 131.668 51.6655 131.608 51.6095C131.552 51.5535 131.524 51.4775 131.524 51.3815V44.5775H128.974C128.878 44.5775 128.8 44.5495 128.74 44.4935C128.684 44.4375 128.656 44.3615 128.656 44.2655C128.656 44.1695 128.684 44.0935 128.74 44.0375C128.8 43.9775 128.878 43.9475 128.974 43.9475H134.71C134.806 43.9475 134.882 43.9775 134.938 44.0375C134.994 44.0935 135.022 44.1695 135.022 44.2655C135.022 44.3615 134.994 44.4375 134.938 44.4935C134.882 44.5495 134.806 44.5775 134.71 44.5775H132.154V51.3815C132.154 51.4735 132.124 51.5495 132.064 51.6095C132.008 51.6655 131.934 51.6935 131.842 51.6935ZM135.508 49.0955V49.5335C135.508 50.0975 135.62 50.4935 135.844 50.7215C136.072 50.9455 136.472 51.0575 137.044 51.0575H138.028C138.532 51.0575 138.898 50.9935 139.126 50.8655C139.358 50.7335 139.496 50.5075 139.54 50.1875C139.556 50.0875 139.588 50.0115 139.636 49.9595C139.688 49.9075 139.766 49.8815 139.87 49.8815C139.974 49.8815 140.052 49.9115 140.104 49.9715C140.16 50.0275 140.182 50.1075 140.17 50.2115C140.118 50.7155 139.916 51.0875 139.564 51.3275C139.212 51.5675 138.7 51.6875 138.028 51.6875H137.044C136.296 51.6875 135.748 51.5155 135.4 51.1715C135.052 50.8235 134.878 50.2775 134.878 49.5335V48.1775C134.878 47.4215 135.052 46.8715 135.4 46.5275C135.748 46.1795 136.296 46.0095 137.044 46.0175H138.028C138.776 46.0175 139.322 46.1915 139.666 46.5395C140.014 46.8835 140.188 47.4295 140.188 48.1775V48.7775C140.188 48.9895 140.084 49.0955 139.876 49.0955H135.508ZM137.044 46.6475C136.472 46.6395 136.072 46.7495 135.844 46.9775C135.62 47.2015 135.508 47.6015 135.508 48.1775V48.4655H139.558V48.1775C139.558 47.6055 139.446 47.2075 139.222 46.9835C138.998 46.7595 138.6 46.6475 138.028 46.6475H137.044ZM144.274 51.6875C143.526 51.6875 142.978 51.5135 142.63 51.1655C142.282 50.8175 142.108 50.2695 142.108 49.5215V48.1655C142.108 47.4175 142.28 46.8715 142.624 46.5275C142.972 46.1795 143.522 46.0095 144.274 46.0175H145.258C145.846 46.0175 146.294 46.1175 146.602 46.3175C146.914 46.5135 147.1 46.8235 147.16 47.2475C147.172 47.3555 147.148 47.4375 147.088 47.4935C147.032 47.5495 146.952 47.5775 146.848 47.5775C146.752 47.5775 146.68 47.5535 146.632 47.5055C146.584 47.4535 146.548 47.3795 146.524 47.2835C146.48 47.0515 146.362 46.8875 146.17 46.7915C145.978 46.6955 145.674 46.6475 145.258 46.6475H144.274C143.702 46.6395 143.302 46.7475 143.074 46.9715C142.85 47.1915 142.738 47.5895 142.738 48.1655V49.5215C142.738 50.0935 142.85 50.4935 143.074 50.7215C143.302 50.9455 143.702 51.0575 144.274 51.0575H145.258C145.674 51.0575 145.978 51.0095 146.17 50.9135C146.362 50.8175 146.48 50.6515 146.524 50.4155C146.548 50.3195 146.584 50.2475 146.632 50.1995C146.68 50.1475 146.752 50.1215 146.848 50.1215C146.952 50.1215 147.032 50.1515 147.088 50.2115C147.148 50.2675 147.172 50.3475 147.16 50.4515C147.1 50.8755 146.914 51.1875 146.602 51.3875C146.294 51.5875 145.846 51.6875 145.258 51.6875H144.274ZM149.444 51.6875C149.232 51.6875 149.126 51.5815 149.126 51.3695V46.3295C149.126 46.1215 149.232 46.0175 149.444 46.0175C149.652 46.0175 149.756 46.1215 149.756 46.3295V46.9055C150.136 46.3135 150.824 46.0175 151.82 46.0175H152.156C152.904 46.0175 153.45 46.1915 153.794 46.5395C154.142 46.8835 154.316 47.4295 154.316 48.1775V51.3695C154.316 51.5815 154.212 51.6875 154.004 51.6875C153.792 51.6875 153.686 51.5815 153.686 51.3695V48.1775C153.686 47.6055 153.572 47.2075 153.344 46.9835C153.12 46.7595 152.724 46.6475 152.156 46.6475H151.82C151.2 46.6475 150.712 46.7455 150.356 46.9415C150 47.1375 149.8 47.4435 149.756 47.8595V51.3695C149.756 51.5815 149.652 51.6875 149.444 51.6875ZM158.454 51.6875C157.706 51.6875 157.158 51.5155 156.81 51.1715C156.462 50.8235 156.288 50.2775 156.288 49.5335V48.1775C156.288 47.4215 156.462 46.8715 156.81 46.5275C157.158 46.1795 157.706 46.0095 158.454 46.0175H159.438C160.186 46.0175 160.732 46.1915 161.076 46.5395C161.424 46.8835 161.598 47.4295 161.598 48.1775V49.5215C161.598 50.2695 161.424 50.8175 161.076 51.1655C160.732 51.5135 160.186 51.6875 159.438 51.6875H158.454ZM156.918 49.5335C156.918 50.0975 157.03 50.4935 157.254 50.7215C157.482 50.9455 157.882 51.0575 158.454 51.0575H159.438C160.01 51.0575 160.408 50.9455 160.632 50.7215C160.856 50.4935 160.968 50.0935 160.968 49.5215V48.1775C160.968 47.6055 160.856 47.2075 160.632 46.9835C160.408 46.7595 160.01 46.6475 159.438 46.6475H158.454C158.07 46.6435 157.766 46.6895 157.542 46.7855C157.318 46.8815 157.158 47.0415 157.062 47.2655C156.966 47.4895 156.918 47.7935 156.918 48.1775V49.5335ZM165.331 51.6875C164.763 51.6875 164.345 51.5555 164.077 51.2915C163.813 51.0275 163.681 50.6135 163.681 50.0495V43.6775C163.681 43.4695 163.787 43.3655 163.999 43.3655C164.207 43.3655 164.311 43.4695 164.311 43.6775V50.0495C164.311 50.4375 164.383 50.7035 164.527 50.8475C164.671 50.9875 164.937 51.0575 165.325 51.0575C165.541 51.0575 165.649 51.1615 165.649 51.3695C165.653 51.5815 165.547 51.6875 165.331 51.6875ZM169.116 45.2735C168.968 45.1455 168.954 45.0035 169.074 44.8475L170.106 43.6295C170.234 43.4695 170.374 43.4575 170.526 43.5935C170.674 43.7175 170.688 43.8575 170.568 44.0135L169.536 45.2315C169.408 45.3915 169.268 45.4055 169.116 45.2735ZM168.942 51.6875C168.194 51.6875 167.646 51.5155 167.298 51.1715C166.95 50.8235 166.776 50.2775 166.776 49.5335V48.1775C166.776 47.4215 166.95 46.8715 167.298 46.5275C167.646 46.1795 168.194 46.0095 168.942 46.0175H169.926C170.674 46.0175 171.22 46.1915 171.564 46.5395C171.912 46.8835 172.086 47.4295 172.086 48.1775V49.5215C172.086 50.2695 171.912 50.8175 171.564 51.1655C171.22 51.5135 170.674 51.6875 169.926 51.6875H168.942ZM167.406 49.5335C167.406 50.0975 167.518 50.4935 167.742 50.7215C167.97 50.9455 168.37 51.0575 168.942 51.0575H169.926C170.498 51.0575 170.896 50.9455 171.12 50.7215C171.344 50.4935 171.456 50.0935 171.456 49.5215V48.1775C171.456 47.6055 171.344 47.2075 171.12 46.9835C170.896 46.7595 170.498 46.6475 169.926 46.6475H168.942C168.558 46.6435 168.254 46.6895 168.03 46.7855C167.806 46.8815 167.646 47.0415 167.55 47.2655C167.454 47.4895 167.406 47.7935 167.406 48.1775V49.5335ZM175.549 54.0875C175.077 54.0875 174.717 53.9895 174.469 53.7935C174.221 53.6015 174.075 53.2975 174.031 52.8815C174.019 52.7775 174.041 52.6955 174.097 52.6355C174.153 52.5755 174.231 52.5455 174.331 52.5455C174.431 52.5455 174.507 52.5715 174.559 52.6235C174.611 52.6755 174.645 52.7535 174.661 52.8575C174.689 53.0895 174.771 53.2475 174.907 53.3315C175.043 53.4155 175.257 53.4575 175.549 53.4575H177.781C178.133 53.4575 178.371 53.3935 178.495 53.2655C178.623 53.1375 178.687 52.8975 178.687 52.5455V50.8295C178.503 51.1095 178.243 51.3235 177.907 51.4715C177.571 51.6155 177.145 51.6875 176.629 51.6875H176.173C175.425 51.6875 174.877 51.5155 174.529 51.1715C174.181 50.8235 174.007 50.2775 174.007 49.5335V48.1775C174.007 47.4215 174.179 46.8735 174.523 46.5335C174.871 46.1895 175.421 46.0175 176.173 46.0175H177.157C177.549 46.0175 177.867 46.0695 178.111 46.1735C178.355 46.2775 178.547 46.4395 178.687 46.6595V46.3295C178.687 46.1215 178.793 46.0175 179.005 46.0175C179.213 46.0175 179.317 46.1215 179.317 46.3295V52.5455C179.317 53.0735 179.193 53.4615 178.945 53.7095C178.697 53.9615 178.309 54.0875 177.781 54.0875H175.549ZM176.173 51.0575H176.629C177.253 51.0575 177.751 50.9595 178.123 50.7635C178.499 50.5675 178.687 50.2695 178.687 49.8695V47.8655C178.687 47.4135 178.561 47.0975 178.309 46.9175C178.057 46.7375 177.673 46.6475 177.157 46.6475H176.173C175.601 46.6475 175.201 46.7595 174.973 46.9835C174.749 47.2035 174.637 47.6015 174.637 48.1775V49.5335C174.637 50.0975 174.749 50.4935 174.973 50.7215C175.201 50.9455 175.601 51.0575 176.173 51.0575ZM181.638 44.9255C181.362 44.9255 181.224 44.7835 181.224 44.4995V44.2295C181.224 43.9535 181.362 43.8155 181.638 43.8155H181.908C182.176 43.8155 182.31 43.9535 182.31 44.2295V44.4995C182.31 44.7835 182.176 44.9255 181.908 44.9255H181.638ZM181.776 51.6875C181.564 51.6875 181.458 51.5815 181.458 51.3695V46.3295C181.458 46.1215 181.564 46.0175 181.776 46.0175C181.984 46.0175 182.088 46.1215 182.088 46.3295V51.3695C182.088 51.5815 181.984 51.6875 181.776 51.6875ZM186.333 51.6875C185.585 51.6875 185.037 51.5135 184.689 51.1655C184.341 50.8175 184.167 50.2695 184.167 49.5215V48.1655C184.167 47.4175 184.339 46.8715 184.683 46.5275C185.031 46.1795 185.581 46.0095 186.333 46.0175H187.317C187.905 46.0175 188.353 46.1175 188.661 46.3175C188.973 46.5135 189.159 46.8235 189.219 47.2475C189.231 47.3555 189.207 47.4375 189.147 47.4935C189.091 47.5495 189.011 47.5775 188.907 47.5775C188.811 47.5775 188.739 47.5535 188.691 47.5055C188.643 47.4535 188.607 47.3795 188.583 47.2835C188.539 47.0515 188.421 46.8875 188.229 46.7915C188.037 46.6955 187.733 46.6475 187.317 46.6475H186.333C185.761 46.6395 185.361 46.7475 185.133 46.9715C184.909 47.1915 184.797 47.5895 184.797 48.1655V49.5215C184.797 50.0935 184.909 50.4935 185.133 50.7215C185.361 50.9455 185.761 51.0575 186.333 51.0575H187.317C187.733 51.0575 188.037 51.0095 188.229 50.9135C188.421 50.8175 188.539 50.6515 188.583 50.4155C188.607 50.3195 188.643 50.2475 188.691 50.1995C188.739 50.1475 188.811 50.1215 188.907 50.1215C189.011 50.1215 189.091 50.1515 189.147 50.2115C189.207 50.2675 189.231 50.3475 189.219 50.4515C189.159 50.8755 188.973 51.1875 188.661 51.3875C188.353 51.5875 187.905 51.6875 187.317 51.6875H186.333ZM192.636 51.6875C192.012 51.6875 191.554 51.5435 191.262 51.2555C190.974 50.9635 190.83 50.5055 190.83 49.8815C190.83 49.2575 190.976 48.7995 191.268 48.5075C191.56 48.2155 192.016 48.0695 192.636 48.0695H195.366C195.358 47.5415 195.238 47.1735 195.006 46.9655C194.778 46.7535 194.388 46.6475 193.836 46.6475H193.14C192.632 46.6475 192.26 46.7015 192.024 46.8095C191.788 46.9175 191.642 47.1015 191.586 47.3615C191.558 47.4615 191.52 47.5355 191.472 47.5835C191.428 47.6275 191.356 47.6495 191.256 47.6495C191.152 47.6495 191.07 47.6215 191.01 47.5655C190.954 47.5055 190.934 47.4255 190.95 47.3255C191.002 46.8695 191.208 46.5375 191.568 46.3295C191.932 46.1215 192.456 46.0175 193.14 46.0175H193.836C194.584 46.0175 195.13 46.1915 195.474 46.5395C195.822 46.8835 195.996 47.4295 195.996 48.1775V51.3695C195.996 51.5815 195.892 51.6875 195.684 51.6875C195.472 51.6875 195.366 51.5815 195.366 51.3695V50.7755C194.982 51.3835 194.296 51.6875 193.308 51.6875H192.636ZM192.636 51.0575H193.308C193.696 51.0575 194.036 51.0155 194.328 50.9315C194.624 50.8435 194.862 50.7035 195.042 50.5115C195.222 50.3195 195.33 50.0635 195.366 49.7435V48.6995H192.636C192.192 48.6995 191.884 48.7855 191.712 48.9575C191.544 49.1255 191.46 49.4335 191.46 49.8815C191.46 50.3255 191.544 50.6335 191.712 50.8055C191.884 50.9735 192.192 51.0575 192.636 51.0575ZM201.613 49.0955V49.5335C201.613 50.0975 201.725 50.4935 201.949 50.7215C202.177 50.9455 202.577 51.0575 203.149 51.0575H204.133C204.637 51.0575 205.003 50.9935 205.231 50.8655C205.463 50.7335 205.601 50.5075 205.645 50.1875C205.661 50.0875 205.693 50.0115 205.741 49.9595C205.793 49.9075 205.871 49.8815 205.975 49.8815C206.079 49.8815 206.157 49.9115 206.209 49.9715C206.265 50.0275 206.287 50.1075 206.275 50.2115C206.223 50.7155 206.021 51.0875 205.669 51.3275C205.317 51.5675 204.805 51.6875 204.133 51.6875H203.149C202.401 51.6875 201.853 51.5155 201.505 51.1715C201.157 50.8235 200.983 50.2775 200.983 49.5335V48.1775C200.983 47.4215 201.157 46.8715 201.505 46.5275C201.853 46.1795 202.401 46.0095 203.149 46.0175H204.133C204.881 46.0175 205.427 46.1915 205.771 46.5395C206.119 46.8835 206.293 47.4295 206.293 48.1775V48.7775C206.293 48.9895 206.189 49.0955 205.981 49.0955H201.613ZM203.149 46.6475C202.577 46.6395 202.177 46.7495 201.949 46.9775C201.725 47.2015 201.613 47.6015 201.613 48.1775V48.4655H205.663V48.1775C205.663 47.6055 205.551 47.2075 205.327 46.9835C205.103 46.7595 204.705 46.6475 204.133 46.6475H203.149ZM214.73 46.0055C215.374 46.0055 215.834 46.1695 216.11 46.4975C216.39 46.8255 216.53 47.3675 216.53 48.1235V51.3815C216.53 51.5895 216.426 51.6935 216.218 51.6935C216.006 51.6935 215.9 51.5895 215.9 51.3815V48.1235C215.9 47.5955 215.81 47.2155 215.63 46.9835C215.45 46.7515 215.15 46.6355 214.73 46.6355H214.232C213.708 46.6355 213.332 46.7515 213.104 46.9835C212.88 47.2155 212.768 47.5955 212.768 48.1235V51.3815C212.768 51.5895 212.664 51.6935 212.456 51.6935C212.244 51.6935 212.138 51.5895 212.138 51.3815V48.1235C212.138 47.5955 212.048 47.2155 211.868 46.9835C211.688 46.7515 211.388 46.6355 210.968 46.6355H210.47C209.946 46.6355 209.57 46.7515 209.342 46.9835C209.118 47.2155 209.006 47.5955 209.006 48.1235V51.3815C209.006 51.5895 208.902 51.6935 208.694 51.6935C208.482 51.6935 208.376 51.5895 208.376 51.3815V46.3295C208.376 46.1215 208.482 46.0175 208.694 46.0175C208.902 46.0175 209.006 46.1215 209.006 46.3295V46.7975C209.182 46.5135 209.39 46.3115 209.63 46.1915C209.874 46.0675 210.182 46.0055 210.554 46.0055H210.968C211.388 46.0055 211.724 46.0795 211.976 46.2275C212.232 46.3715 212.434 46.6095 212.582 46.9415C212.758 46.6095 212.974 46.3715 213.23 46.2275C213.486 46.0795 213.82 46.0055 214.232 46.0055H214.73ZM223.663 51.6755C222.947 51.6755 222.415 51.5175 222.067 51.2015C221.723 50.8815 221.539 50.3795 221.515 49.6955C221.511 49.5995 221.537 49.5235 221.593 49.4675C221.653 49.4075 221.731 49.3775 221.827 49.3775C221.923 49.3775 221.999 49.4055 222.055 49.4615C222.111 49.5175 222.143 49.5935 222.151 49.6895C222.167 50.1935 222.287 50.5455 222.511 50.7455C222.735 50.9455 223.119 51.0455 223.663 51.0455H225.391C225.959 51.0455 226.353 50.9355 226.573 50.7155C226.797 50.4915 226.909 50.0995 226.909 49.5395C226.909 48.9715 226.797 48.5775 226.573 48.3575C226.353 48.1335 225.959 48.0215 225.391 48.0215H223.747C223.043 48.0215 222.527 47.8575 222.199 47.5295C221.871 47.2015 221.707 46.6875 221.707 45.9875C221.707 45.2875 221.869 44.7735 222.193 44.4455C222.521 44.1175 223.035 43.9535 223.735 43.9535H225.415C226.087 43.9535 226.585 44.1035 226.909 44.4035C227.237 44.7035 227.413 45.1755 227.437 45.8195C227.445 45.9155 227.419 45.9935 227.359 46.0535C227.303 46.1095 227.225 46.1375 227.125 46.1375C227.033 46.1375 226.959 46.1095 226.903 46.0535C226.847 45.9975 226.815 45.9215 226.807 45.8255C226.791 45.3655 226.679 45.0435 226.471 44.8595C226.263 44.6755 225.911 44.5835 225.415 44.5835H223.735C223.211 44.5835 222.847 44.6875 222.643 44.8955C222.439 45.0995 222.337 45.4635 222.337 45.9875C222.337 46.5115 222.439 46.8775 222.643 47.0855C222.851 47.2895 223.219 47.3915 223.747 47.3915H225.391C226.135 47.3915 226.679 47.5655 227.023 47.9135C227.367 48.2575 227.539 48.7995 227.539 49.5395C227.539 50.2795 227.367 50.8215 227.023 51.1655C226.679 51.5055 226.135 51.6755 225.391 51.6755H223.663ZM231.308 51.6875C230.684 51.6875 230.226 51.5435 229.934 51.2555C229.646 50.9635 229.502 50.5055 229.502 49.8815C229.502 49.2575 229.648 48.7995 229.94 48.5075C230.232 48.2155 230.688 48.0695 231.308 48.0695H234.038C234.03 47.5415 233.91 47.1735 233.678 46.9655C233.45 46.7535 233.06 46.6475 232.508 46.6475H231.812C231.304 46.6475 230.932 46.7015 230.696 46.8095C230.46 46.9175 230.314 47.1015 230.258 47.3615C230.23 47.4615 230.192 47.5355 230.144 47.5835C230.1 47.6275 230.028 47.6495 229.928 47.6495C229.824 47.6495 229.742 47.6215 229.682 47.5655C229.626 47.5055 229.606 47.4255 229.622 47.3255C229.674 46.8695 229.88 46.5375 230.24 46.3295C230.604 46.1215 231.128 46.0175 231.812 46.0175H232.508C233.256 46.0175 233.802 46.1915 234.146 46.5395C234.494 46.8835 234.668 47.4295 234.668 48.1775V51.3695C234.668 51.5815 234.564 51.6875 234.356 51.6875C234.144 51.6875 234.038 51.5815 234.038 51.3695V50.7755C233.654 51.3835 232.968 51.6875 231.98 51.6875H231.308ZM231.308 51.0575H231.98C232.368 51.0575 232.708 51.0155 233 50.9315C233.296 50.8435 233.534 50.7035 233.714 50.5115C233.894 50.3195 234.002 50.0635 234.038 49.7435V48.6995H231.308C230.864 48.6995 230.556 48.7855 230.384 48.9575C230.216 49.1255 230.132 49.4335 230.132 49.8815C230.132 50.3255 230.216 50.6335 230.384 50.8055C230.556 50.9735 230.864 51.0575 231.308 51.0575ZM241.57 46.0175C241.782 46.0175 241.888 46.1215 241.888 46.3295V51.3695C241.888 51.5815 241.782 51.6875 241.57 51.6875C241.362 51.6875 241.258 51.5815 241.258 51.3695V50.7995C240.878 51.3915 240.19 51.6875 239.194 51.6875H238.858C238.11 51.6875 237.562 51.5135 237.214 51.1655C236.87 50.8175 236.698 50.2695 236.698 49.5215V46.3295C236.698 46.1215 236.802 46.0175 237.01 46.0175C237.222 46.0175 237.328 46.1215 237.328 46.3295V49.5215C237.328 50.0935 237.44 50.4935 237.664 50.7215C237.892 50.9455 238.29 51.0575 238.858 51.0575H239.194C239.814 51.0575 240.302 50.9575 240.658 50.7575C241.014 50.5575 241.214 50.2515 241.258 49.8395V46.3295C241.258 46.1215 241.362 46.0175 241.57 46.0175ZM238.924 45.2735C238.78 45.1455 238.768 45.0035 238.888 44.8475L239.914 43.6295C240.046 43.4695 240.188 43.4575 240.34 43.5935C240.484 43.7175 240.496 43.8575 240.376 44.0135L239.35 45.2315C239.222 45.3915 239.08 45.4055 238.924 45.2735ZM246.134 51.6875C245.386 51.6875 244.838 51.5135 244.49 51.1655C244.142 50.8175 243.968 50.2695 243.968 49.5215V48.1775C243.968 47.4295 244.142 46.8835 244.49 46.5395C244.838 46.1915 245.386 46.0175 246.134 46.0175H248.648V43.6775C248.648 43.4695 248.754 43.3655 248.966 43.3655C249.174 43.3655 249.278 43.4695 249.278 43.6775V51.3695C249.278 51.5815 249.174 51.6875 248.966 51.6875C248.754 51.6875 248.648 51.5815 248.648 51.3695V50.8535C248.476 51.1295 248.224 51.3375 247.892 51.4775C247.56 51.6175 247.126 51.6875 246.59 51.6875H246.134ZM246.134 51.0575H246.59C247.214 51.0575 247.712 50.9595 248.084 50.7635C248.46 50.5635 248.648 50.2655 248.648 49.8695V46.6475H246.134C245.562 46.6475 245.162 46.7615 244.934 46.9895C244.71 47.2135 244.598 47.6095 244.598 48.1775V49.5215C244.598 50.0935 244.71 50.4935 244.934 50.7215C245.162 50.9455 245.562 51.0575 246.134 51.0575ZM251.887 49.0955V49.5335C251.887 50.0975 251.999 50.4935 252.223 50.7215C252.451 50.9455 252.851 51.0575 253.423 51.0575H254.407C254.911 51.0575 255.277 50.9935 255.505 50.8655C255.737 50.7335 255.875 50.5075 255.919 50.1875C255.935 50.0875 255.967 50.0115 256.015 49.9595C256.067 49.9075 256.145 49.8815 256.249 49.8815C256.353 49.8815 256.431 49.9115 256.483 49.9715C256.539 50.0275 256.561 50.1075 256.549 50.2115C256.497 50.7155 256.295 51.0875 255.943 51.3275C255.591 51.5675 255.079 51.6875 254.407 51.6875H253.423C252.675 51.6875 252.127 51.5155 251.779 51.1715C251.431 50.8235 251.257 50.2775 251.257 49.5335V48.1775C251.257 47.4215 251.431 46.8715 251.779 46.5275C252.127 46.1795 252.675 46.0095 253.423 46.0175H254.407C255.155 46.0175 255.701 46.1915 256.045 46.5395C256.393 46.8835 256.567 47.4295 256.567 48.1775V48.7775C256.567 48.9895 256.463 49.0955 256.255 49.0955H251.887ZM253.423 46.6475C252.851 46.6395 252.451 46.7495 252.223 46.9775C251.999 47.2015 251.887 47.6015 251.887 48.1775V48.4655H255.937V48.1775C255.937 47.6055 255.825 47.2075 255.601 46.9835C255.377 46.7595 254.979 46.6475 254.407 46.6475H253.423Z" fill="#1956B4"/>
<path d="M20.9375 55.8125C17.8125 55.7917 15.2917 55.4479 13.375 54.7813C11.4583 54.1146 10.0625 53.0833 9.1875 51.6875C8.3125 50.3125 7.875 48.5625 7.875 46.4375V36.7187C7.875 35.3021 7.57292 34.1667 6.96875 33.3125C6.36458 32.4583 5.47917 31.8333 4.3125 31.4375C3.14583 31.0417 1.70833 30.8437 0 30.8437V24.9375C1.70833 24.9375 3.14583 24.75 4.3125 24.375C5.47917 23.9792 6.36458 23.3542 6.96875 22.5C7.57292 21.625 7.875 20.4896 7.875 19.0937V9.3125C7.875 7.1667 8.32292 5.4063 9.2188 4.0313C10.1146 2.6563 11.5208 1.6458 13.4375 1C15.375 0.3333 17.875 0 20.9375 0V5.625C19.6042 5.6667 18.4583 5.8542 17.5 6.1875C16.5417 6.5208 15.8125 7.0729 15.3125 7.8437C14.8125 8.5937 14.5625 9.625 14.5625 10.9375V20.3125C14.5625 22.375 13.9688 24.0208 12.7812 25.25C11.6146 26.4792 9.8646 27.2917 7.53125 27.6875V28.0625C9.8854 28.4167 11.6458 29.2187 12.8125 30.4687C13.9792 31.6979 14.5625 33.3437 14.5625 35.4063V44.875C14.5625 46.1875 14.8125 47.2187 15.3125 47.9687C15.8125 48.7396 16.5417 49.2813 17.5 49.5937C18.4583 49.9271 19.6042 50.1042 20.9375 50.125V55.8125ZM57.5938 55.8125V50.125C58.9062 50.0833 60.0312 49.8958 60.9688 49.5625C61.9271 49.25 62.6562 48.7083 63.1562 47.9375C63.6771 47.1875 63.9375 46.1563 63.9375 44.8437V35.4375C63.9375 33.375 64.5312 31.7292 65.7188 30.5C66.9062 29.25 68.6562 28.4479 70.9688 28.0937V27.7187C68.6354 27.3229 66.875 26.5104 65.6875 25.2813C64.5208 24.0521 63.9375 22.4063 63.9375 20.3437V10.9063C63.9375 9.5937 63.6875 8.5625 63.1875 7.8125C62.6875 7.0417 61.9583 6.4896 61 6.1563C60.0625 5.8229 58.9271 5.6458 57.5938 5.625V0C60.6979 0 63.2083 0.3333 65.125 1C67.0417 1.6667 68.4375 2.6875 69.3125 4.0625C70.1875 5.4375 70.625 7.1979 70.625 9.3437V19.0625C70.625 20.4792 70.9271 21.625 71.5312 22.5C72.1354 23.3542 73.0208 23.9792 74.1875 24.375C75.3542 24.75 76.7917 24.9375 78.5 24.9375V30.8437C76.7917 30.8437 75.3542 31.0417 74.1875 31.4375C73.0208 31.8333 72.1354 32.4583 71.5312 33.3125C70.9271 34.1667 70.625 35.2917 70.625 36.6875V46.4687C70.625 48.5937 70.1771 50.3437 69.2812 51.7187C68.3854 53.1146 66.9792 54.1458 65.0625 54.8125C63.1458 55.4792 60.6562 55.8125 57.5938 55.8125Z" fill="#38B6FF"/>
<path d="M54 39.25C54 41.9583 53.3333 44.2917 52 46.25C50.6875 48.2083 48.7917 49.7083 46.3125 50.75C43.8542 51.7917 40.9167 52.3125 37.5 52.3125C35.8333 52.3125 34.2396 52.2187 32.7188 52.0313C31.1979 51.8437 29.7604 51.5729 28.4062 51.2187C27.0729 50.8437 25.8542 50.3958 24.75 49.875V42.8125C26.6042 43.625 28.6771 44.3646 30.9688 45.0313C33.2604 45.6771 35.5938 46 37.9688 46C39.9062 46 41.5104 45.75 42.7812 45.25C44.0729 44.7292 45.0312 44 45.6562 43.0625C46.2812 42.1042 46.5938 40.9896 46.5938 39.7187C46.5938 38.3646 46.2292 37.2187 45.5 36.2813C44.7708 35.3437 43.6667 34.4896 42.1875 33.7187C40.7292 32.9271 38.8958 32.0833 36.6875 31.1875C35.1875 30.5833 33.75 29.8958 32.375 29.125C31.0208 28.3542 29.8125 27.4479 28.75 26.4063C27.6875 25.3646 26.8438 24.1354 26.2188 22.7187C25.6146 21.2813 25.3125 19.5937 25.3125 17.6563C25.3125 15.0729 25.9271 12.8646 27.1562 11.0313C28.4062 9.19789 30.1562 7.79169 32.4062 6.81249C34.6771 5.83329 37.3229 5.34369 40.3438 5.34369C42.7396 5.34369 44.9896 5.59369 47.0938 6.09369C49.2188 6.59369 51.3021 7.30209 53.3438 8.21869L50.9688 14.25C49.0938 13.4792 47.2708 12.8646 45.5 12.4063C43.75 11.9479 41.9583 11.7187 40.125 11.7187C38.5417 11.7187 37.1979 11.9583 36.0938 12.4375C34.9896 12.9167 34.1458 13.5937 33.5625 14.4687C33 15.3229 32.7188 16.3437 32.7188 17.5313C32.7188 18.8646 33.0417 19.9896 33.6875 20.9063C34.3542 21.8021 35.375 22.625 36.75 23.375C38.1458 24.125 39.9375 24.9583 42.125 25.875C44.6458 26.9167 46.7812 28.0104 48.5312 29.1563C50.3021 30.3021 51.6562 31.6771 52.5938 33.2813C53.5312 34.8646 54 36.8542 54 39.25Z" fill="#1956B4"/>
</svg>
